{
.appVersion = "939";
DisplayStrings = (
ABCDEFGHIJKLMNOPQRSTUVWXYZabcdefghijklmnopqrstuvwxyz
);
copyright = "Copyright 2016 Jeremy Tribby. SIL OFL License v1.1.";
date = "2016-07-12 00:27:02 +0000";
designer = "Jeremy Tribby";
designerURL = "http://tribby.com/";
familyName = Barlow;
featurePrefixes = (
{
automatic = 1;
code = "languagesystem DFLT dflt;\012";
name = Languagesystems;
}
);
features = (
{
automatic = 1;
code = "sub hyphen hyphen by hyphen_hyphen.liga;\012";
name = liga;
}
);
fontMaster = (
{
alignmentZones = (
"{800, 16}",
"{700, 10}",
"{500, 9}",
"{0, -10}",
"{-200, -16}"
);
ascender = 800;
capHeight = 700;
customParameters = (
{
name = paramArea;
value = "488";
},
{
name = paramDepth;
value = "16";
},
{
name = paramOver;
value = "0";
}
);
descender = -200;
horizontalStems = (
22,
22
);
id = "262880E7-CFE1-4BDA-902E-E24798F3240A";
userData = {
GSCornerRadius = 8;
GSOffsetHorizontal = 24;
GSOffsetMakeStroke = 1;
GSOffsetPosition = 0.2;
GSOffsetVertical = 20;
noodleExtremesAndInflections = 1;
noodleRemoveOverlap = 1;
noodleThickness = "22.0";
};
verticalStems = (
21,
21
);
visible = 1;
weight = Light;
weightValue = 23;
xHeight = 500;
},
{
alignmentZones = (
"{800, 16}",
"{700, 11}",
"{509, 11}",
"{0, -11}",
"{-200, -5}"
);
ascender = 800;
capHeight = 700;
customParameters = (
{
name = paramArea;
value = "488";
},
{
name = paramDepth;
value = "16";
},
{
name = paramOver;
value = "0";
}
);
descender = -200;
horizontalStems = (
100,
100
);
id = "0BD25E4B-8A11-4E34-A837-2DA28743BADD";
verticalStems = (
90,
90
);
xHeight = 509;
},
{
alignmentZones = (
"{800, 16}",
"{700, 13}",
"{520, 13}",
"{0, -13}",
"{-200, -12}"
);
ascender = 800;
capHeight = 700;
customParameters = (
{
name = paramArea;
value = "488";
},
{
name = paramDepth;
value = "16";
},
{
name = paramOver;
value = "0";
}
);
descender = -200;
horizontalStems = (
188,
188
);
id = "4E2227F3-52E4-4048-A8EE-327B486EF0A4";
userData = {
GSCornerRadius = 8;
GSOffsetHorizontal = 104;

glyphs = (
{
glyphname = A;
lastChange = "2016-12-24 21:26:00 +0000";
layers = (
{
layerId = "262880E7-CFE1-4BDA-902E-E24798F3240A";
paths = (
{
closed = 1;
nodes = (
"54 0 LINE",
"238 658 LINE",
"421 0 LINE",
"444 0 LINE",
"249 700 LINE",
"226 700 LINE",
"31 0 LINE"
);
},
{
closed = 1;
nodes = (
"390 155 LINE",
"390 176 LINE",
"89 176 LINE",
"89 155 LINE"
);
}
);
width = 475;
},
{
layerId = "4E2227F3-52E4-4048-A8EE-327B486EF0A4";
paths = (
{
closed = 1;
nodes = (
"197 0 LINE",
"273 458 LINE",
"335 0 LINE",
"528 0 LINE",
"374 700 LINE",
"163 700 LINE",
"9 0 LINE"
);
},
{
closed = 1;
nodes = (
"406 95 LINE",
"406 239 LINE",
"127 239 LINE",
"127 95 LINE"
);
}
);
width = 537;
},
{
layerId = "0BD25E4B-8A11-4E34-A837-2DA28743BADD";
paths = (
{
closed = 1;
nodes = (
"121 0 LINE",
"256 561 LINE",
"384 0 LINE",
"487 0 LINE",
"309 700 LINE",
"198 700 LINE",
"21 0 LINE"
);
},
{
closed = 1;
nodes = (
"398 131 LINE",
"398 221 LINE",
"110 221 LINE",
"110 131 LINE"
);
}
);
width = 508;
}
);
leftKerningGroup = A;
rightKerningGroup = A;
unicode = 0041;
},
{
glyphname = B;
lastChange = "2016-12-24 21:28:43 +0000";
layers = (
{
layerId = "262880E7-CFE1-4BDA-902E-E24798F3240A";
paths = (
{
closed = 1;
nodes = (
"108 679 LINE",
"263 679 LINE SMOOTH",
"362 679 OFFCURVE",
"428 617 OFFCURVE",
"428 523 CURVE SMOOTH",
"428 433 OFFCURVE",
"362 373 OFFCURVE",
"263 373 CURVE SMOOTH",
"108 373 LINE"
);
},
{
closed = 1;
nodes = (
"263 352 LINE SMOOTH",
"375 352 OFFCURVE",
"450 421 OFFCURVE",
"450 523 CURVE SMOOTH",
"450 629 OFFCURVE",
"375 700 OFFCURVE",
"263 700 CURVE SMOOTH",
"86 700 LINE",
"86 352 LINE"
);
},
{
closed = 1;
nodes = (
"108 352 LINE",
"263 352 LINE SMOOTH",
"362 352 OFFCURVE",
"429 285 OFFCURVE",
"429 186 CURVE SMOOTH",
"429 88 OFFCURVE",
"362 22 OFFCURVE",
"263 22 CURVE SMOOTH",
"108 22 LINE"
);
},
{
closed = 1;
nodes = (
"263 0 LINE SMOOTH",
"375 0 OFFCURVE",
"451 74 OFFCURVE",
"451 186 CURVE SMOOTH",
"451 299 OFFCURVE",
"375 373 OFFCURVE",
"263 373 CURVE SMOOTH",
"86 373 LINE",
"86 0 LINE"
);
}
);
width = 505;
},
{
layerId = "4E2227F3-52E4-4048-A8EE-327B486EF0A4";
paths = (
{
closed = 1;
nodes = (
"212 530 LINE",
"232 530 LINE",
"268 530 OFFCURVE",
"286 511 OFFCURVE",
"286 478 CURVE SMOOTH",
"286 447 OFFCURVE",
"268 427 OFFCURVE",
"232 427 CURVE",
"212 427 LINE"
);
},
{
closed = 1;
nodes = (
"196 319 LINE SMOOTH",
"379 319 OFFCURVE",
"470 369 OFFCURVE",
"470 503 CURVE SMOOTH",
"470 640 OFFCURVE",
"374 700 OFFCURVE",
"229 700 CURVE",
"24 700 LINE",
"24 319 LINE"
);
},
{
closed = 1;
nodes = (
"212 288 LINE",
"244 288 LINE SMOOTH",
"275 288 OFFCURVE",
"295 260 OFFCURVE",
"295 225 CURVE SMOOTH",
"295 190 OFFCURVE",
"274 170 OFFCURVE",
"243 170 CURVE SMOOTH",
"212 170 LINE"
);
},
{
closed = 1;
nodes = (
"258 0 LINE SMOOTH",
"383 0 OFFCURVE",
"483 63 OFFCURVE",
"483 204 CURVE SMOOTH",
"483 357 OFFCURVE",
"321 413 OFFCURVE",
"196 413 CURVE",
"24 413 LINE",
"24 0 LINE"
);
}
);
width = 498;
},
{
layerId = "0BD25E4B-8A11-4E34-A837-2DA28743BADD";
paths = (
{
closed = 1;
nodes = (
"156 610 LINE",
"228 610 LINE",
"292 610 OFFCURVE",
"335 567 OFFCURVE",
"335 504 CURVE SMOOTH",
"335 442 OFFCURVE",
"292 401 OFFCURVE",
"228 401 CURVE",
"156 401 LINE"
);
},
{
closed = 1;
nodes = (
"224 328 LINE SMOOTH",
"350 328 OFFCURVE",
"435 401 OFFCURVE",
"435 513 CURVE SMOOTH",
"435 627 OFFCURVE",
"347 700 OFFCURVE",
"221 700 CURVE",
"56 700 LINE",
"56 328 LINE"
);
},
{
closed = 1;
nodes = (
"156 311 LINE",
"238 311 LINE SMOOTH",
"303 311 OFFCURVE",
"347 269 OFFCURVE",
"347 202 CURVE SMOOTH",
"347 136 OFFCURVE",
"304 90 OFFCURVE",
"238 90 CURVE SMOOTH",
"156 90 LINE"
);
},
{
closed = 1;
nodes = (
"245 0 LINE SMOOTH",
"366 0 OFFCURVE",
"447 77 OFFCURVE",
"447 194 CURVE SMOOTH",
"447 315 OFFCURVE",
"360 400 OFFCURVE",
"235 400 CURVE",
"56 400 LINE",
"56 0 LINE"
);
}
);
width = 482;
}
);
leftKerningGroup = H;
rightKerningGroup = B;
unicode = 0042;
},
{
glyphname = C;
lastChange = "2016-12-24 21:29:16 +0000";
layers = (
{
layerId = "262880E7-CFE1-4BDA-902E-E24798F3240A";
paths = (
{
closed = 1;
nodes = (
"371 -9 OFFCURVE",
"445 56 OFFCURVE",
"445 154 CURVE SMOOTH",
"445 179 LINE",
"422 179 LINE",
"422 152 LINE SMOOTH",
"422 68 OFFCURVE",
"358 12 OFFCURVE",
"263 12 CURVE SMOOTH",
"166 12 OFFCURVE",
"104 68 OFFCURVE",
"104 152 CURVE SMOOTH",
"104 548 LINE SMOOTH",
"104 632 OFFCURVE",
"166 688 OFFCURVE",
"263 688 CURVE SMOOTH",
"358 688 OFFCURVE",
"422 632 OFFCURVE",
"422 548 CURVE SMOOTH",
"422 520 LINE",
"445 520 LINE",
"445 546 LINE SMOOTH",
"445 644 OFFCURVE",
"371 709 OFFCURVE",
"263 709 CURVE SMOOTH",
"153 709 OFFCURVE",
"82 644 OFFCURVE",
"82 546 CURVE SMOOTH",
"82 154 LINE SMOOTH",
"82 56 OFFCURVE",
"153 -9 OFFCURVE",
"263 -9 CURVE SMOOTH"
);
}
);
width = 499;
},
{
layerId = "4E2227F3-52E4-4048-A8EE-327B486EF0A4";
paths = (
{
closed = 1;
nodes = (
"383 -11 OFFCURVE",
"472 75 OFFCURVE",
"472 205 CURVE SMOOTH",
"472 231 LINE",
"284 231 LINE",
"284 194 LINE SMOOTH",
"284 168 OFFCURVE",
"270 150 OFFCURVE",
"248 150 CURVE SMOOTH",
"227 150 OFFCURVE",
"212 168 OFFCURVE",
"212 194 CURVE SMOOTH",
"212 508 LINE SMOOTH",
"212 534 OFFCURVE",
"227 552 OFFCURVE",
"248 552 CURVE SMOOTH",
"270 552 OFFCURVE",
"284 534 OFFCURVE",
"284 508 CURVE SMOOTH",
"284 470 LINE",
"472 470 LINE",
"472 497 LINE SMOOTH",
"472 627 OFFCURVE",
"383 713 OFFCURVE",
"248 713 CURVE SMOOTH",
"114 713 OFFCURVE",
"24 627 OFFCURVE",
"24 497 CURVE SMOOTH",
"24 205 LINE SMOOTH",
"24 75 OFFCURVE",
"114 -11 OFFCURVE",
"248 -11 CURVE SMOOTH"
);
}
);
width = 487;
},
{
layerId = "0BD25E4B-8A11-4E34-A837-2DA28743BADD";
paths = (
{
closed = 1;
nodes = (
"367 -10 OFFCURVE",
"444 65 OFFCURVE",
"444 178 CURVE SMOOTH",
"444 204 LINE",
"344 204 LINE",
"344 175 LINE SMOOTH",
"344 119 OFFCURVE",
"307 80 OFFCURVE",
"250 80 CURVE SMOOTH",
"193 80 OFFCURVE",
"156 119 OFFCURVE",
"156 175 CURVE SMOOTH",
"156 526 LINE SMOOTH",
"156 582 OFFCURVE",
"193 621 OFFCURVE",
"250 621 CURVE SMOOTH",
"307 621 OFFCURVE",
"344 582 OFFCURVE",
"344 526 CURVE SMOOTH",
"344 496 LINE",
"444 496 LINE",
"444 523 LINE SMOOTH",
"444 636 OFFCURVE",
"367 711 OFFCURVE",
"250 711 CURVE SMOOTH",
"134 711 OFFCURVE",
"56 636 OFFCURVE",
"56 523 CURVE SMOOTH",
"56 178 LINE SMOOTH",
"56 65 OFFCURVE",
"134 -10 OFFCURVE",
"250 -10 CURVE SMOOTH"
);
}
);
width = 479;
}
);
leftKerningGroup = O;
rightKerningGroup = C;
unicode = 0043;
},
{
glyphname = D;
lastChange = "2016-12-24 21:29:56 +0000";
layers = (
{
layerId = "262880E7-CFE1-4BDA-902E-E24798F3240A";
paths = (
{
closed = 1;
nodes = (
"271 0 LINE SMOOTH",
"380 0 OFFCURVE",
"447 68 OFFCURVE",
"447 180 CURVE SMOOTH",
"447 520 LINE SMOOTH",
"447 632 OFFCURVE",
"380 700 OFFCURVE",
"271 700 CURVE SMOOTH",
"97 700 LINE",
"97 0 LINE"
);
},
{
closed = 1;
nodes = (
"119 679 LINE",
"273 679 LINE SMOOTH",
"367 679 OFFCURVE",
"425 619 OFFCURVE",
"425 520 CURVE SMOOTH",
"425 179 LINE SMOOTH",
"425 81 OFFCURVE",
"367 21 OFFCURVE",
"273 21 CURVE SMOOTH",
"119 21 LINE"
);
}
);
width = 523;
},
{
layerId = "4E2227F3-52E4-4048-A8EE-327B486EF0A4";
paths = (
{
closed = 1;
nodes = (
"244 0 LINE SMOOTH",
"380 0 OFFCURVE",
"471 80 OFFCURVE",
"471 200 CURVE SMOOTH",
"471 500 LINE SMOOTH",
"471 620 OFFCURVE",
"380 700 OFFCURVE",
"244 700 CURVE SMOOTH",
"27 700 LINE",
"27 0 LINE"
);
},
{
closed = 1;
nodes = (
"215 530 LINE",
"239 530 LINE SMOOTH",
"265 530 OFFCURVE",
"283 510 OFFCURVE",
"283 479 CURVE",
"283 222 LINE",
"281 192 OFFCURVE",
"263 172 OFFCURVE",
"239 171 CURVE SMOOTH",
"215 170 LINE"
);
}
);
width = 492;
},
{
layerId = "0BD25E4B-8A11-4E34-A837-2DA28743BADD";
paths = (
{
closed = 1;
nodes = (
"251 0 LINE SMOOTH",
"369 0 OFFCURVE",
"445 73 OFFCURVE",
"445 190 CURVE SMOOTH",
"445 510 LINE SMOOTH",
"445 627 OFFCURVE",
"369 700 OFFCURVE",
"251 700 CURVE SMOOTH",
"62 700 LINE",
"62 0 LINE"
);
},
{
closed = 1;
nodes = (
"162 610 LINE",
"249 610 LINE SMOOTH",
"308 610 OFFCURVE",
"345 568 OFFCURVE",
"345 501 CURVE",
"345 199 LINE",
"345 132 OFFCURVE",
"307 90 OFFCURVE",
"249 90 CURVE SMOOTH",
"162 90 LINE"
);
}
);
width = 493;
}
);
leftKerningGroup = H;
rightKerningGroup = B;
unicode = 0044;
},
{
glyphname = E;
lastChange = "2016-12-24 21:30:14 +0000";
layers = (
{
layerId = "262880E7-CFE1-4BDA-902E-E24798F3240A";
paths = (
{
closed = 1;
nodes = (
"445 0 LINE",
"445 21 LINE",
"119 21 LINE",
"119 679 LINE",
"445 679 LINE",
"445 700 LINE",
"97 700 LINE",
"97 0 LINE"
);
},
{
closed = 1;
nodes = (
"345 340 LINE",
"345 361 LINE",
"108 361 LINE",
"108 340 LINE"
);
}
);
width = 488;
},
{
layerId = "4E2227F3-52E4-4048-A8EE-327B486EF0A4";
paths = (
{
closed = 1;
nodes = (
"447 0 LINE",
"447 170 LINE",
"215 170 LINE",
"215 530 LINE",
"447 530 LINE",
"447 700 LINE",
"27 700 LINE",
"27 0 LINE"
);
},
{
closed = 1;
nodes = (
"352 265 LINE",
"352 435 LINE",
"103 435 LINE",
"103 265 LINE"
);
}
);
width = 459;
},
{
layerId = "0BD25E4B-8A11-4E34-A837-2DA28743BADD";
paths = (
{
closed = 1;
nodes = (
"432 0 LINE",
"432 90 LINE",
"162 90 LINE",
"162 610 LINE",
"432 610 LINE",
"432 700 LINE",
"62 700 LINE",
"62 0 LINE"
);
},
{
closed = 1;
nodes = (
"338 305 LINE",
"338 395 LINE",
"103 395 LINE",
"103 305 LINE"
);
}
);
width = 460;
}
);
leftKerningGroup = H;
unicode = 0045;
},
{
glyphname = F;
lastChange = "2016-12-24 21:37:51 +0000";
layers = (
{
layerId = "262880E7-CFE1-4BDA-902E-E24798F3240A";
paths = (
{
closed = 1;
nodes = (
"119 0 LINE",
"119 679 LINE",
"444 679 LINE",
"444 700 LINE",
"97 700 LINE",
"97 0 LINE"
);
},
{
closed = 1;
nodes = (
"344 340 LINE",
"344 361 LINE",
"108 361 LINE",
"108 340 LINE"
);
}
);
width = 477;
},
{
layerId = "4E2227F3-52E4-4048-A8EE-327B486EF0A4";
paths = (
{
closed = 1;
nodes = (
"215 0 LINE",
"215 530 LINE",
"447 530 LINE",
"447 700 LINE",
"27 700 LINE",
"27 0 LINE"
);
},
{
closed = 1;
nodes = (
"352 265 LINE",
"352 435 LINE",
"103 435 LINE",
"103 265 LINE"
);
}
);
width = 456;
},
{
layerId = "0BD25E4B-8A11-4E34-A837-2DA28743BADD";
paths = (
{
closed = 1;
nodes = (
"162 0 LINE",
"162 610 LINE",
"432 610 LINE",
"432 700 LINE",
"62 700 LINE",
"62 0 LINE"
);
},
{
closed = 1;
nodes = (
"338 307 LINE",
"338 397 LINE",
"104 397 LINE",
"104 307 LINE"
);
}
);
width = 453;
}
);
leftKerningGroup = H;
unicode = 0046;
},
{
glyphname = G;
lastChange = "2016-12-24 21:31:11 +0000";
layers = (
{
layerId = "262880E7-CFE1-4BDA-902E-E24798F3240A";
paths = (
{
closed = 1;
nodes = (
"371 -9 OFFCURVE",
"444 56 OFFCURVE",
"444 154 CURVE SMOOTH",
"444 361 LINE",
"272 361 LINE",
"272 340 LINE",
"422 340 LINE",
"422 152 LINE SMOOTH",
"422 68 OFFCURVE",
"358 12 OFFCURVE",
"263 12 CURVE SMOOTH",
"166 12 OFFCURVE",
"104 68 OFFCURVE",
"104 152 CURVE SMOOTH",
"104 548 LINE SMOOTH",
"104 632 OFFCURVE",
"166 688 OFFCURVE",
"263 688 CURVE SMOOTH",
"358 688 OFFCURVE",
"422 632 OFFCURVE",
"422 548 CURVE SMOOTH",
"422 500 LINE",
"444 500 LINE",
"444 546 LINE SMOOTH",
"444 644 OFFCURVE",
"371 709 OFFCURVE",
"263 709 CURVE SMOOTH",
"153 709 OFFCURVE",
"82 644 OFFCURVE",
"82 546 CURVE SMOOTH",
"82 154 LINE SMOOTH",
"82 56 OFFCURVE",
"153 -9 OFFCURVE",
"263 -9 CURVE SMOOTH"
);
}
);
width = 498;
},
{
layerId = "4E2227F3-52E4-4048-A8EE-327B486EF0A4";
paths = (
{
closed = 1;
nodes = (
"379 -11 OFFCURVE",
"468 72 OFFCURVE",
"468 196 CURVE SMOOTH",
"468 380 LINE",
"248 380 LINE",
"248 271 LINE",
"280 271 LINE",
"280 192 LINE SMOOTH",
"280 167 OFFCURVE",
"266 150 OFFCURVE",
"246 150 CURVE SMOOTH",
"226 150 OFFCURVE",
"212 167 OFFCURVE",
"212 192 CURVE SMOOTH",
"212 509 LINE SMOOTH",
"212 534 OFFCURVE",
"226 551 OFFCURVE",
"246 551 CURVE SMOOTH",
"266 551 OFFCURVE",
"280 534 OFFCURVE",
"280 509 CURVE SMOOTH",
"280 430 LINE",
"468 430 LINE",
"468 503 LINE SMOOTH",
"468 628 OFFCURVE",
"379 712 OFFCURVE",
"246 712 CURVE SMOOTH",
"113 712 OFFCURVE",
"24 629 OFFCURVE",
"24 505 CURVE SMOOTH",
"24 196 LINE SMOOTH",
"24 72 OFFCURVE",
"113 -11 OFFCURVE",
"246 -11 CURVE SMOOTH"
);
}
);
width = 483;
},
{
layerId = "0BD25E4B-8A11-4E34-A837-2DA28743BADD";
paths = (
{
closed = 1;
nodes = (
"365 -10 OFFCURVE",
"441 63 OFFCURVE",
"441 173 CURVE SMOOTH",
"441 394 LINE",
"254 394 LINE",
"254 304 LINE",
"341 304 LINE",
"341 174 LINE SMOOTH",
"341 118 OFFCURVE",
"306 80 OFFCURVE",
"249 80 CURVE SMOOTH",
"193 80 OFFCURVE",
"156 118 OFFCURVE",
"156 174 CURVE SMOOTH",
"156 526 LINE SMOOTH",
"156 582 OFFCURVE",
"193 620 OFFCURVE",
"249 620 CURVE SMOOTH",
"306 620 OFFCURVE",
"341 582 OFFCURVE",
"341 526 CURVE SMOOTH",
"341 467 LINE",
"441 467 LINE",
"441 526 LINE SMOOTH",
"441 637 OFFCURVE",
"365 710 OFFCURVE",
"249 710 CURVE SMOOTH",
"133 710 OFFCURVE",
"56 637 OFFCURVE",
"56 527 CURVE SMOOTH",
"56 173 LINE SMOOTH",
"56 63 OFFCURVE",
"133 -10 OFFCURVE",
"249 -10 CURVE SMOOTH"
);
}
);
width = 476;
}
);
leftKerningGroup = O;
rightKerningGroup = G;
unicode = 0047;
},
{
glyphname = H;
lastChange = "2016-12-24 21:31:42 +0000";
layers = (
{
layerId = "262880E7-CFE1-4BDA-902E-E24798F3240A";
paths = (
{
closed = 1;
nodes = (
"447 0 LINE",
"447 700 LINE",
"424 700 LINE",
"424 0 LINE"
);
},
{
closed = 1;
nodes = (
"119 0 LINE",
"119 700 LINE",
"97 700 LINE",
"97 0 LINE"
);
},
{
closed = 1;
nodes = (
"430 340 LINE",
"430 361 LINE",
"114 361 LINE",
"114 340 LINE"
);
}
);
width = 544;
},
{
layerId = "4E2227F3-52E4-4048-A8EE-327B486EF0A4";
paths = (
{
closed = 1;
nodes = (
"461 0 LINE",
"461 700 LINE",
"273 700 LINE",
"273 0 LINE"
);
},
{
closed = 1;
nodes = (
"215 0 LINE",
"215 700 LINE",
"27 700 LINE",
"27 0 LINE"
);
},
{
closed = 1;
nodes = (
"368 265 LINE",
"368 435 LINE",
"123 435 LINE",
"123 265 LINE"
);
}
);
width = 488;
},
{
layerId = "0BD25E4B-8A11-4E34-A837-2DA28743BADD";
paths = (
{
closed = 1;
nodes = (
"440 0 LINE",
"440 700 LINE",
"340 700 LINE",
"340 0 LINE"
);
},
{
closed = 1;
nodes = (
"162 0 LINE",
"162 700 LINE",
"62 700 LINE",
"62 0 LINE"
);
},
{
closed = 1;
nodes = (
"388 307 LINE",
"388 397 LINE",
"116 397 LINE",
"116 307 LINE"
);
}
);
width = 503;
}
);
unicode = 0048;
},
{
glyphname = I;
lastChange = "2016-12-24 21:31:48 +0000";
layers = (
{
layerId = "262880E7-CFE1-4BDA-902E-E24798F3240A";
paths = (
{
closed = 1;
nodes = (
"119 0 LINE",
"119 700 LINE",
"97 700 LINE",
"97 0 LINE"
);
}
);
width = 216;
},
{
layerId = "4E2227F3-52E4-4048-A8EE-327B486EF0A4";
paths = (
{
closed = 1;
nodes = (
"215 0 LINE",
"215 700 LINE",
"27 700 LINE",
"27 0 LINE"
);
}
);
width = 242;
},
{
layerId = "0BD25E4B-8A11-4E34-A837-2DA28743BADD";
paths = (
{
closed = 1;
nodes = (
"163 0 LINE",
"163 700 LINE",
"63 700 LINE",
"63 0 LINE"
);
}
);
width = 225;
}
);
unicode = 0049;
},
{
glyphname = J;
lastChange = "2016-12-24 21:32:33 +0000";
layers = (
{
layerId = "262880E7-CFE1-4BDA-902E-E24798F3240A";
paths = (
{
closed = 1;
nodes = (
"312 -9 OFFCURVE",
"381 56 OFFCURVE",
"381 154 CURVE SMOOTH",
"381 700 LINE",
"359 700 LINE",
"359 152 LINE SMOOTH",
"359 68 OFFCURVE",
"298 12 OFFCURVE",
"207 12 CURVE SMOOTH",
"116 12 OFFCURVE",
"55 68 OFFCURVE",
"55 152 CURVE SMOOTH",
"55 251 LINE",
"33 251 LINE",
"33 154 LINE SMOOTH",
"33 56 OFFCURVE",
"102 -9 OFFCURVE",
"207 -9 CURVE SMOOTH"
);
}
);
width = 478;
},
{
layerId = "4E2227F3-52E4-4048-A8EE-327B486EF0A4";
paths = (
{
closed = 1;
nodes = (
"365 -8 OFFCURVE",
"454 72 OFFCURVE",
"454 192 CURVE SMOOTH",
"454 700 LINE",
"266 700 LINE",
"266 204 LINE SMOOTH",
"266 179 OFFCURVE",
"252 162 OFFCURVE",
"231 162 CURVE SMOOTH",
"211 162 OFFCURVE",
"197 179 OFFCURVE",
"197 204 CURVE SMOOTH",
"197 265 LINE",
"9 265 LINE",
"9 192 LINE SMOOTH",
"9 72 OFFCURVE",
"98 -8 OFFCURVE",
"231 -8 CURVE SMOOTH"
);
}
);
width = 481;
},
{
layerId = "0BD25E4B-8A11-4E34-A837-2DA28743BADD";
paths = (
{
closed = 1;
nodes = (
"328 -9 OFFCURVE",
"402 66 OFFCURVE",
"402 183 CURVE SMOOTH",
"402 700 LINE",
"302 700 LINE",
"302 180 LINE SMOOTH",
"302 120 OFFCURVE",
"267 81 OFFCURVE",
"211 81 CURVE SMOOTH",
"155 81 OFFCURVE",
"120 120 OFFCURVE",
"120 180 CURVE SMOOTH",
"120 256 LINE",
"21 256 LINE",
"21 183 LINE SMOOTH",
"21 66 OFFCURVE",
"95 -9 OFFCURVE",
"211 -9 CURVE SMOOTH"
);
}
);
width = 465;
}
);
leftKerningGroup = J;
rightKerningGroup = U;
unicode = 004A;
},
{
glyphname = K;
lastChange = "2016-12-24 21:32:40 +0000";
layers = (
{
layerId = "262880E7-CFE1-4BDA-902E-E24798F3240A";
paths = (
{
closed = 1;
nodes = (
"119 0 LINE",
"119 274 LINE",
"228 406 LINE",
"460 0 LINE",
"488 0 LINE",
"244 427 LINE",
"467 700 LINE",
"438 700 LINE",
"119 308 LINE",
"119 700 LINE",
"97 700 LINE",
"97 0 LINE"
);
}
);
width = 488;
},
{
layerId = "4E2227F3-52E4-4048-A8EE-327B486EF0A4";
paths = (
{
closed = 1;
nodes = (
"215 0 LINE",
"215 183 LINE",
"243 246 LINE",
"297 -4 LINE",
"495 0 LINE",
"365 392 LINE",
"498 700 LINE",
"300 700 LINE",
"215 447 LINE",
"215 700 LINE",
"27 700 LINE",
"27 0 LINE"
);
}
);
width = 498;
},
{
layerId = "0BD25E4B-8A11-4E34-A837-2DA28743BADD";
paths = (
{
closed = 1;
nodes = (
"162 0 LINE",
"162 232 LINE",
"230 331 LINE",
"373 -2 LINE",
"480 0 LINE",
"296 411 LINE",
"471 700 LINE",
"363 700 LINE",
"162 373 LINE",
"162 700 LINE",
"62 700 LINE",
"62 0 LINE"
);
}
);
width = 480;
}
);
rightKerningGroup = K;
unicode = 004B;
},
{
glyphname = L;
lastChange = "2016-12-24 21:32:53 +0000";
layers = (
{
layerId = "262880E7-CFE1-4BDA-902E-E24798F3240A";
paths = (
{
closed = 1;
nodes = (
"436 0 LINE",
"436 21 LINE",
"119 21 LINE",
"119 700 LINE",
"97 700 LINE",
"97 0 LINE"
);
}
);
width = 457;
},
{
layerId = "4E2227F3-52E4-4048-A8EE-327B486EF0A4";
paths = (
{
closed = 1;
nodes = (
"447 0 LINE",
"447 170 LINE",
"215 170 LINE",
"215 700 LINE",
"27 700 LINE",
"27 0 LINE"
);
}
);
width = 453;
},
{
layerId = "0BD25E4B-8A11-4E34-A837-2DA28743BADD";
paths = (
{
closed = 1;
nodes = (
"428 0 LINE",
"428 90 LINE",
"162 90 LINE",
"162 700 LINE",
"62 700 LINE",
"62 0 LINE"
);
}
);
width = 442;
}
);
rightKerningGroup = L;
unicode = 004C;
},
{
glyphname = M;
lastChange = "2016-12-24 21:33:24 +0000";
layers = (
{
layerId = "262880E7-CFE1-4BDA-902E-E24798F3240A";
paths = (
{
closed = 1;
nodes = (
"108 0 LINE",
"108 651 LINE",
"279 327 LINE",
"451 651 LINE",
"451 0 LINE",
"473 0 LINE",
"473 700 LINE",
"451 700 LINE",
"279 372 LINE",
"108 700 LINE",
"86 700 LINE",
"86 0 LINE"
);
}
);
width = 559;
},
{
layerId = "4E2227F3-52E4-4048-A8EE-327B486EF0A4";
paths = (
{
closed = 1;
nodes = (
"212 0 LINE",
"212 434 LINE",
"270 296 LINE",
"327 431 LINE",
"327 0 LINE",
"515 0 LINE",
"515 700 LINE",
"332 700 LINE",
"270 562 LINE",
"207 700 LINE",
"24 700 LINE",
"24 0 LINE"
);
}
);
width = 539;
},
{
layerId = "0BD25E4B-8A11-4E34-A837-2DA28743BADD";
paths = (
{
closed = 1;
nodes = (
"156 0 LINE",
"156 493 LINE",
"268 278 LINE",
"379 493 LINE",
"379 0 LINE",
"479 0 LINE",
"479 700 LINE",
"381 700 LINE",
"268 464 LINE",
"154 700 LINE",
"56 700 LINE",
"56 0 LINE"
);
}
);
width = 535;
}
);
unicode = 004D;
},
{
glyphname = N;
lastChange = "2016-12-24 21:33:33 +0000";
layers = (
{
layerId = "262880E7-CFE1-4BDA-902E-E24798F3240A";
paths = (
{
closed = 1;
nodes = (
"108 0 LINE",
"108 647 LINE",
"432 0 LINE",
"454 0 LINE",
"454 700 LINE",
"432 700 LINE",
"432 53 LINE",
"108 700 LINE",
"86 700 LINE",
"86 0 LINE"
);
}
);
width = 540;
},
{
layerId = "4E2227F3-52E4-4048-A8EE-327B486EF0A4";
paths = (
{
closed = 1;
nodes = (
"210 0 LINE",
"208 346 LINE",
"290 0 LINE",
"495 0 LINE",
"495 700 LINE",
"309 700 LINE",
"311 356 LINE",
"229 700 LINE",
"24 700 LINE",
"24 0 LINE"
);
}
);
width = 519;
},
{
layerId = "0BD25E4B-8A11-4E34-A837-2DA28743BADD";
paths = (
{
closed = 1;
nodes = (
"157 0 LINE",
"156 457 LINE",
"357 0 LINE",
"456 0 LINE",
"456 700 LINE",
"356 700 LINE",
"356 236 LINE",
"156 700 LINE",
"57 700 LINE",
"57 0 LINE"
);
}
);
width = 512;
}
);
leftKerningGroup = H;
rightKerningGroup = H;
unicode = 004E;
},
{
glyphname = O;
lastChange = "2016-12-24 21:33:45 +0000";
layers = (
{
layerId = "262880E7-CFE1-4BDA-902E-E24798F3240A";
paths = (
{
closed = 1;
nodes = (
"358 -9 OFFCURVE",
"433 56 OFFCURVE",
"433 154 CURVE SMOOTH",
"433 546 LINE SMOOTH",
"433 644 OFFCURVE",
"358 709 OFFCURVE",
"247 709 CURVE SMOOTH",
"137 709 OFFCURVE",
"64 644 OFFCURVE",
"64 546 CURVE SMOOTH",
"64 154 LINE SMOOTH",
"64 56 OFFCURVE",
"137 -9 OFFCURVE",
"247 -9 CURVE SMOOTH"
);
},
{
closed = 1;
nodes = (
"150 12 OFFCURVE",
"86 68 OFFCURVE",
"86 152 CURVE SMOOTH",
"86 548 LINE SMOOTH",
"86 632 OFFCURVE",
"150 688 OFFCURVE",
"247 688 CURVE SMOOTH",
"346 688 OFFCURVE",
"411 632 OFFCURVE",
"411 548 CURVE SMOOTH",
"411 152 LINE SMOOTH",
"411 68 OFFCURVE",
"346 12 OFFCURVE",
"247 12 CURVE SMOOTH"
);
}
);
width = 497;
},
{
layerId = "4E2227F3-52E4-4048-A8EE-327B486EF0A4";
paths = (
{
closed = 1;
nodes = (
"387 -12 OFFCURVE",
"480 78 OFFCURVE",
"480 214 CURVE SMOOTH",
"480 486 LINE SMOOTH",
"480 622 OFFCURVE",
"387 712 OFFCURVE",
"249 712 CURVE SMOOTH",
"111 712 OFFCURVE",
"18 622 OFFCURVE",
"18 486 CURVE SMOOTH",
"18 214 LINE SMOOTH",
"18 78 OFFCURVE",
"111 -12 OFFCURVE",
"249 -12 CURVE SMOOTH"
);
},
{
closed = 1;
nodes = (
"223 149 OFFCURVE",
"206 174 OFFCURVE",
"206 203 CURVE SMOOTH",
"206 497 LINE SMOOTH",
"206 526 OFFCURVE",
"223 551 OFFCURVE",
"249 551 CURVE SMOOTH",
"275 551 OFFCURVE",
"292 526 OFFCURVE",
"292 497 CURVE SMOOTH",
"292 203 LINE SMOOTH",
"292 174 OFFCURVE",
"275 149 OFFCURVE",
"249 149 CURVE SMOOTH"
);
}
);
width = 498;
},
{
layerId = "0BD25E4B-8A11-4E34-A837-2DA28743BADD";
paths = (
{
closed = 1;
nodes = (
"363 -10 OFFCURVE",
"444 66 OFFCURVE",
"444 182 CURVE SMOOTH",
"444 518 LINE SMOOTH",
"444 634 OFFCURVE",
"363 710 OFFCURVE",
"242 710 CURVE SMOOTH",
"122 710 OFFCURVE",
"41 634 OFFCURVE",
"41 518 CURVE SMOOTH",
"41 182 LINE SMOOTH",
"41 66 OFFCURVE",
"122 -10 OFFCURVE",
"242 -10 CURVE SMOOTH"
);
},
{
closed = 1;
nodes = (
"181 80 OFFCURVE",
"141 121 OFFCURVE",
"141 179 CURVE SMOOTH",
"141 521 LINE SMOOTH",
"141 579 OFFCURVE",
"181 620 OFFCURVE",
"241 620 CURVE SMOOTH",
"302 620 OFFCURVE",
"342 579 OFFCURVE",
"342 521 CURVE SMOOTH",
"342 179 LINE SMOOTH",
"342 121 OFFCURVE",
"302 80 OFFCURVE",
"241 80 CURVE SMOOTH"
);
}
);
width = 485;
}
);
leftKerningGroup = C;
rightKerningGroup = O;
unicode = 004F;
},
{
glyphname = P;
lastChange = "2016-12-24 21:34:11 +0000";
layers = (
{
layerId = "262880E7-CFE1-4BDA-902E-E24798F3240A";
paths = (
{
closed = 1;
nodes = (
"107 0 LINE",
"107 680 LINE",
"278 680 LINE SMOOTH",
"362 680 OFFCURVE",
"418 616 OFFCURVE",
"418 520 CURVE SMOOTH",
"418 424 OFFCURVE",
"362 360 OFFCURVE",
"278 360 CURVE SMOOTH",
"102 360 LINE",
"102 340 LINE",
"276 340 LINE SMOOTH",
"374 340 OFFCURVE",
"439 411 OFFCURVE",
"439 520 CURVE SMOOTH",
"439 629 OFFCURVE",
"374 702 OFFCURVE",
"276 702 CURVE SMOOTH",
"84 702 LINE",
"84 0 LINE"
);
}
);
width = 502;
},
{
layerId = "4E2227F3-52E4-4048-A8EE-327B486EF0A4";
paths = (
{
closed = 1;
nodes = (
"212 0 LINE",
"212 530 LINE",
"238 530 LINE SMOOTH",
"265 530 OFFCURVE",
"285 508 OFFCURVE",
"285 476 CURVE SMOOTH",
"285 438 OFFCURVE",
"265 412 OFFCURVE",
"238 412 CURVE SMOOTH",
"196 412 LINE",
"196 247 LINE",
"270 247 LINE SMOOTH",
"392 247 OFFCURVE",
"473 339 OFFCURVE",
"473 476 CURVE SMOOTH",
"473 610 OFFCURVE",
"388 700 OFFCURVE",
"260 700 CURVE SMOOTH",
"24 700 LINE",
"24 0 LINE"
);
}
);
width = 491;
},
{
layerId = "0BD25E4B-8A11-4E34-A837-2DA28743BADD";
paths = (
{
closed = 1;
nodes = (
"156 0 LINE",
"156 611 LINE",
"254 611 LINE SMOOTH",
"310 611 OFFCURVE",
"347 567 OFFCURVE",
"347 499 CURVE SMOOTH",
"347 431 OFFCURVE",
"310 384 OFFCURVE",
"254 384 CURVE SMOOTH",
"146 384 LINE",
"146 294 LINE",
"268 294 LINE SMOOTH",
"375 294 OFFCURVE",
"447 377 OFFCURVE",
"447 499 CURVE SMOOTH",
"447 620 OFFCURVE",
"373 701 OFFCURVE",
"264 701 CURVE SMOOTH",
"56 701 LINE",
"56 0 LINE"
);
}
);
width = 488;
}
);
leftKerningGroup = H;
unicode = 0050;
},
{
glyphname = Q;
lastChange = "2016-12-24 21:34:53 +0000";
layers = (
{
layerId = "262880E7-CFE1-4BDA-902E-E24798F3240A";
paths = (
{
closed = 1;
nodes = (
"465 -41 LINE",
"223 11 LINE",
"218 -8 LINE",
"460 -66 LINE"
);
},
{
closed = 1;
nodes = (
"147 12 OFFCURVE",
"86 68 OFFCURVE",
"86 152 CURVE SMOOTH",
"86 548 LINE SMOOTH",
"86 632 OFFCURVE",
"147 688 OFFCURVE",
"240 688 CURVE SMOOTH",
"333 688 OFFCURVE",
"394 632 OFFCURVE",
"394 548 CURVE SMOOTH",
"394 152 LINE SMOOTH",
"394 68 OFFCURVE",
"333 12 OFFCURVE",
"240 12 CURVE SMOOTH"
);
},
{
closed = 1;
nodes = (
"346 -9 OFFCURVE",
"416 56 OFFCURVE",
"416 154 CURVE SMOOTH",
"416 546 LINE SMOOTH",
"416 644 OFFCURVE",
"346 709 OFFCURVE",
"240 709 CURVE SMOOTH",
"134 709 OFFCURVE",
"64 644 OFFCURVE",
"64 546 CURVE SMOOTH",
"64 154 LINE SMOOTH",
"64 56 OFFCURVE",
"134 -9 OFFCURVE",
"240 -9 CURVE SMOOTH"
);
}
);
width = 497;
},
{
layerId = "4E2227F3-52E4-4048-A8EE-327B486EF0A4";
paths = (
{
closed = 1;
nodes = (
"502 74 LINE",
"210 100 LINE",
"164 4 LINE",
"502 -106 LINE"
);
},
{
closed = 1;
nodes = (
"222 162 OFFCURVE",
"206 182 OFFCURVE",
"206 213 CURVE SMOOTH",
"206 487 LINE SMOOTH",
"206 518 OFFCURVE",
"222 538 OFFCURVE",
"246 538 CURVE SMOOTH",
"271 538 OFFCURVE",
"286 518 OFFCURVE",
"286 487 CURVE SMOOTH",
"286 213 LINE SMOOTH",
"286 182 OFFCURVE",
"271 162 OFFCURVE",
"246 162 CURVE SMOOTH"
);
},
{
closed = 1;
nodes = (
"384 -8 OFFCURVE",
"474 81 OFFCURVE",
"474 215 CURVE SMOOTH",
"474 485 LINE SMOOTH",
"474 619 OFFCURVE",
"384 708 OFFCURVE",
"246 708 CURVE SMOOTH",
"109 708 OFFCURVE",
"18 619 OFFCURVE",
"18 485 CURVE SMOOTH",
"18 215 LINE SMOOTH",
"18 81 OFFCURVE",
"109 -8 OFFCURVE",
"246 -8 CURVE SMOOTH"
);
}
);
width = 498;
},
{
layerId = "0BD25E4B-8A11-4E34-A837-2DA28743BADD";
paths = (
{
closed = 1;
nodes = (
"475 47 LINE",
"240 62 LINE",
"211 -7 LINE",
"465 -44 LINE"
);
},
{
closed = 1;
nodes = (
"180 81 OFFCURVE",
"141 121 OFFCURVE",
"141 181 CURVE SMOOTH",
"141 519 LINE SMOOTH",
"141 579 OFFCURVE",
"180 619 OFFCURVE",
"236 619 CURVE SMOOTH",
"294 619 OFFCURVE",
"332 579 OFFCURVE",
"332 519 CURVE SMOOTH",
"332 181 LINE SMOOTH",
"332 121 OFFCURVE",
"294 81 OFFCURVE",
"236 81 CURVE SMOOTH"
);
},
{
closed = 1;
nodes = (
"353 -9 OFFCURVE",
"432 68 OFFCURVE",
"432 183 CURVE SMOOTH",
"432 517 LINE SMOOTH",
"432 632 OFFCURVE",
"353 709 OFFCURVE",
"236 709 CURVE SMOOTH",
"120 709 OFFCURVE",
"41 632 OFFCURVE",
"41 517 CURVE SMOOTH",
"41 183 LINE SMOOTH",
"41 68 OFFCURVE",
"120 -9 OFFCURVE",
"236 -9 CURVE SMOOTH"
);
}
);
width = 484;
}
);
leftKerningGroup = C;
unicode = 0051;
},
{
glyphname = R;
lastChange = "2016-12-24 21:35:08 +0000";
layers = (
{
layerId = "262880E7-CFE1-4BDA-902E-E24798F3240A";
paths = (
{
closed = 1;
nodes = (
"107 0 LINE",
"107 680 LINE",
"282 680 LINE SMOOTH",
"366 680 OFFCURVE",
"421 616 OFFCURVE",
"421 520 CURVE SMOOTH",
"421 424 OFFCURVE",
"366 360 OFFCURVE",
"282 360 CURVE SMOOTH",
"102 360 LINE",
"102 340 LINE",
"280 340 LINE SMOOTH",
"378 340 OFFCURVE",
"443 411 OFFCURVE",
"443 520 CURVE SMOOTH",
"443 629 OFFCURVE",
"378 702 OFFCURVE",
"280 702 CURVE SMOOTH",
"84 702 LINE",
"84 0 LINE"
);
},
{
closed = 1;
nodes = (
"452 0 LINE",
"322 349 LINE",
"304 341 LINE",
"430 0 LINE"
);
}
);
width = 494;
},
{
layerId = "4E2227F3-52E4-4048-A8EE-327B486EF0A4";
paths = (
{
closed = 1;
nodes = (
"212 0 LINE",
"212 530 LINE",
"249 530 LINE SMOOTH",
"278 530 OFFCURVE",
"297 506 OFFCURVE",
"297 469 CURVE SMOOTH",
"297 432 OFFCURVE",
"278 407 OFFCURVE",
"249 407 CURVE SMOOTH",
"196 407 LINE",
"196 244 LINE",
"283 244 LINE SMOOTH",
"404 244 OFFCURVE",
"485 336 OFFCURVE",
"485 474 CURVE SMOOTH",
"485 610 OFFCURVE",
"400 700 OFFCURVE",
"273 700 CURVE SMOOTH",
"24 700 LINE",
"24 0 LINE"
);
},
{
closed = 1;
nodes = (
"492 0 LINE",
"386 335 LINE",
"208 335 LINE",
"298 0 LINE"
);
}
);
width = 504;
},
{
layerId = "0BD25E4B-8A11-4E34-A837-2DA28743BADD";
paths = (
{
closed = 1;
nodes = (
"156 0 LINE",
"156 610 LINE",
"256 610 LINE SMOOTH",
"311 610 OFFCURVE",
"348 566 OFFCURVE",
"348 496 CURVE SMOOTH",
"348 425 OFFCURVE",
"311 379 OFFCURVE",
"256 379 CURVE SMOOTH",
"146 379 LINE",
"146 289 LINE",
"270 289 LINE SMOOTH",
"377 289 OFFCURVE",
"448 373 OFFCURVE",
"448 499 CURVE SMOOTH",
"448 620 OFFCURVE",
"375 701 OFFCURVE",
"266 701 CURVE SMOOTH",
"56 701 LINE",
"56 0 LINE"
);
},
{
closed = 1;
nodes = (
"455 0 LINE",
"338 343 LINE",
"245 338 LINE",
"353 0 LINE"
);
}
);
width = 483;
}
);
rightKerningGroup = R;
unicode = 0052;
},
{
glyphname = S;
lastChange = "2016-12-25 00:59:28 +0000";
layers = (
{
layerId = "262880E7-CFE1-4BDA-902E-E24798F3240A";
paths = (
{
closed = 1;
nodes = (
"357 -9 OFFCURVE",
"426 49 OFFCURVE",
"426 149 CURVE SMOOTH",
"426 254 OFFCURVE",
"334 307 OFFCURVE",
"246 359 CURVE SMOOTH",
"161 409 OFFCURVE",
"76 457 OFFCURVE",
"76 550 CURVE SMOOTH",
"76 637 OFFCURVE",
"135 688 OFFCURVE",
"236 688 CURVE SMOOTH",
"338 688 OFFCURVE",
"398 636 OFFCURVE",
"398 548 CURVE SMOOTH",
"398 500 LINE",
"420 500 LINE",
"420 549 LINE SMOOTH",
"420 650 OFFCURVE",
"352 709 OFFCURVE",
"236 709 CURVE SMOOTH",
"121 709 OFFCURVE",
"54 651 OFFCURVE",
"54 552 CURVE SMOOTH",
"54 448 OFFCURVE",
"144 395 OFFCURVE",
"231 343 CURVE SMOOTH",
"316 292 OFFCURVE",
"404 243 OFFCURVE",
"404 149 CURVE SMOOTH",
"404 63 OFFCURVE",
"342 12 OFFCURVE",
"237 12 CURVE SMOOTH",
"135 12 OFFCURVE",
"76 63 OFFCURVE",
"76 151 CURVE SMOOTH",
"76 210 LINE",
"56 210 LINE",
"56 150 LINE SMOOTH",
"56 50 OFFCURVE",
"123 -9 OFFCURVE",
"239 -9 CURVE SMOOTH"
);
}
);
width = 480;
},
{
layerId = "4E2227F3-52E4-4048-A8EE-327B486EF0A4";
paths = (
{
closed = 1;
nodes = (
"356 -8 OFFCURVE",
"442 70 OFFCURVE",
"442 187 CURVE SMOOTH",
"442 287 OFFCURVE",
"381 338 OFFCURVE",
"279 412 CURVE SMOOTH",
"216 458 OFFCURVE",
"200 470 OFFCURVE",
"200 500 CURVE SMOOTH",
"200 524 OFFCURVE",
"210 538 OFFCURVE",
"226 538 CURVE SMOOTH",
"242 538 OFFCURVE",
"253 524 OFFCURVE",
"253 504 CURVE SMOOTH",
"253 490 LINE",
"438 490 LINE",
"438 509 LINE SMOOTH",
"438 628 OFFCURVE",
"354 708 OFFCURVE",
"227 708 CURVE SMOOTH",
"99 708 OFFCURVE",
"15 628 OFFCURVE",
"15 510 CURVE SMOOTH",
"15 387 OFFCURVE",
"105 322 OFFCURVE",
"177 272 CURVE SMOOTH",
"246 224 OFFCURVE",
"257 215 OFFCURVE",
"257 194 CURVE SMOOTH",
"257 175 OFFCURVE",
"246 162 OFFCURVE",
"232 162 CURVE SMOOTH",
"216 162 OFFCURVE",
"205 176 OFFCURVE",
"205 198 CURVE SMOOTH",
"205 211 LINE",
"20 211 LINE",
"20 180 LINE SMOOTH",
"20 70 OFFCURVE",
"102 -8 OFFCURVE",
"230 -8 CURVE SMOOTH"
);
}
);
width = 457;
},
{
layerId = "0BD25E4B-8A11-4E34-A837-2DA28743BADD";
paths = (
{
closed = 1;
nodes = (
"346 -9 OFFCURVE",
"421 59 OFFCURVE",
"421 167 CURVE SMOOTH",
"421 269 OFFCURVE",
"345 324 OFFCURVE",
"253 386 CURVE SMOOTH",
"182 434 OFFCURVE",
"133 463 OFFCURVE",
"133 526 CURVE SMOOTH",
"133 585 OFFCURVE",
"167 619 OFFCURVE",
"224 619 CURVE SMOOTH",
"282 619 OFFCURVE",
"315 584 OFFCURVE",
"315 528 CURVE SMOOTH",
"315 496 LINE",
"413 496 LINE",
"413 531 LINE SMOOTH",
"413 639 OFFCURVE",
"342 709 OFFCURVE",
"224 709 CURVE SMOOTH",
"108 709 OFFCURVE",
"35 634 OFFCURVE",
"35 527 CURVE SMOOTH",
"35 413 OFFCURVE",
"122 359 OFFCURVE",
"198 308 CURVE SMOOTH",
"272 258 OFFCURVE",
"321 230 OFFCURVE",
"321 170 CURVE SMOOTH",
"321 115 OFFCURVE",
"288 81 OFFCURVE",
"229 81 CURVE SMOOTH",
"172 81 OFFCURVE",
"137 115 OFFCURVE",
"137 177 CURVE SMOOTH",
"137 210 LINE",
"37 210 LINE",
"37 164 LINE SMOOTH",
"37 60 OFFCURVE",
"113 -9 OFFCURVE",
"229 -9 CURVE SMOOTH"
);
}
);
width = 454;
}
);
leftKerningGroup = S;
rightKerningGroup = S;
unicode = 0053;
},
{
glyphname = T;
lastChange = "2016-12-24 21:36:54 +0000";
layers = (
{
layerId = "262880E7-CFE1-4BDA-902E-E24798F3240A";
paths = (
{
closed = 1;
nodes = (
"241 0 LINE",
"241 689 LINE",
"219 689 LINE",
"219 0 LINE"
);
},
{
closed = 1;
nodes = (
"427 679 LINE",
"427 700 LINE",
"43 700 LINE",
"43 679 LINE"
);
}
);
width = 448;
},
{
layerId = "4E2227F3-52E4-4048-A8EE-327B486EF0A4";
paths = (
{
closed = 1;
nodes = (
"330 0 LINE",
"330 689 LINE",
"142 689 LINE",
"142 0 LINE"
);
},
{
closed = 1;
nodes = (
"463 530 LINE",
"463 700 LINE",
"12 700 LINE",
"12 530 LINE"
);
}
);
width = 469;
},
{
layerId = "0BD25E4B-8A11-4E34-A837-2DA28743BADD";
paths = (
{
closed = 1;
nodes = (
"275 0 LINE",
"275 689 LINE",
"175 689 LINE",
"175 0 LINE"
);
},
{
closed = 1;
nodes = (
"429 610 LINE",
"429 700 LINE",
"28 700 LINE",
"28 610 LINE"
);
}
);
width = 443;
}
);
leftKerningGroup = T;
rightKerningGroup = T;
unicode = 0054;
},
{
glyphname = U;
lastChange = "2016-12-24 21:37:16 +0000";
layers = (
{
layerId = "262880E7-CFE1-4BDA-902E-E24798F3240A";
paths = (
{
closed = 1;
nodes = (
"372 -9 OFFCURVE",
"447 59 OFFCURVE",
"447 160 CURVE SMOOTH",
"447 700 LINE",
"426 700 LINE",
"426 156 LINE SMOOTH",
"426 70 OFFCURVE",
"359 12 OFFCURVE",
"261 12 CURVE SMOOTH",
"163 12 OFFCURVE",
"98 70 OFFCURVE",
"98 156 CURVE SMOOTH",
"98 700 LINE",
"76 700 LINE",
"76 160 LINE SMOOTH",
"76 59 OFFCURVE",
"150 -9 OFFCURVE",
"261 -9 CURVE SMOOTH"
);
}
);
width = 523;
},
{
layerId = "4E2227F3-52E4-4048-A8EE-327B486EF0A4";
paths = (
{
closed = 1;
nodes = (
"376 -8 OFFCURVE",
"465 77 OFFCURVE",
"465 208 CURVE SMOOTH",
"465 700 LINE",
"277 700 LINE",
"277 208 LINE SMOOTH",
"277 180 OFFCURVE",
"263 162 OFFCURVE",
"243 162 CURVE SMOOTH",
"223 162 OFFCURVE",
"209 180 OFFCURVE",
"209 208 CURVE SMOOTH",
"209 700 LINE",
"21 700 LINE",
"21 208 LINE SMOOTH",
"21 77 OFFCURVE",
"110 -8 OFFCURVE",
"243 -8 CURVE SMOOTH"
);
}
);
width = 486;
},
{
layerId = "0BD25E4B-8A11-4E34-A837-2DA28743BADD";
paths = (
{
closed = 1;
nodes = (
"363 -9 OFFCURVE",
"442 68 OFFCURVE",
"442 182 CURVE SMOOTH",
"442 700 LINE",
"342 700 LINE",
"342 180 LINE SMOOTH",
"342 121 OFFCURVE",
"303 81 OFFCURVE",
"245 81 CURVE SMOOTH",
"188 81 OFFCURVE",
"148 121 OFFCURVE",
"148 180 CURVE SMOOTH",
"148 700 LINE",
"48 700 LINE",
"48 182 LINE SMOOTH",
"48 68 OFFCURVE",
"128 -9 OFFCURVE",
"245 -9 CURVE SMOOTH"
);
}
);
width = 490;
}
);
rightKerningGroup = U;
unicode = 0055;
},
{
glyphname = V;
lastChange = "2016-12-20 00:27:53 +0000";
layers = (
{
layerId = "262880E7-CFE1-4BDA-902E-E24798F3240A";
paths = (
{
closed = 1;
nodes = (
"248 0 LINE",
"443 700 LINE",
"420 700 LINE",
"237 42 LINE",
"53 700 LINE",
"31 700 LINE",
"226 0 LINE"
);
}
);
width = 474;
},
{
layerId = "4E2227F3-52E4-4048-A8EE-327B486EF0A4";
paths = (
{
closed = 1;
nodes = (
"364 0 LINE",
"517 700 LINE",
"319 700 LINE",
"268 305 LINE",
"212 700 LINE",
"9 700 LINE",
"161 0 LINE"
);
}
);
width = 526;
},
{
layerId = "0BD25E4B-8A11-4E34-A837-2DA28743BADD";
paths = (
{
closed = 1;
nodes = (
"302 0 LINE",
"478 700 LINE",
"373 700 LINE",
"251 165 LINE",
"127 700 LINE",
"21 700 LINE",
"196 0 LINE"
);
}
);
width = 499;
}
);
leftKerningGroup = V;
rightKerningGroup = V;
unicode = 0056;
},
{
glyphname = W;
lastChange = "2016-12-20 00:27:53 +0000";
layers = (
{
layerId = "262880E7-CFE1-4BDA-902E-E24798F3240A";
paths = (
{
closed = 1;
nodes = (
"203 0 LINE",
"347 657 LINE",
"487 0 LINE",
"508 0 LINE",
"661 700 LINE",
"639 700 LINE",
"499 40 LINE",
"355 700 LINE",
"337 700 LINE",
"193 40 LINE",
"53 700 LINE",
"31 700 LINE",
"181 0 LINE"
);
}
);
width = 692;
},
{
layerId = "4E2227F3-52E4-4048-A8EE-327B486EF0A4";
paths = (
{
closed = 1;
nodes = (
"314 0 LINE",
"351 362 LINE",
"397 0 LINE",
"561 0 LINE",
"693 700 LINE",
"500 700 LINE",
"480 352 LINE",
"431 700 LINE",
"266 700 LINE",
"232 352 LINE",
"207 700 LINE",
"9 700 LINE",
"149 0 LINE"
);
}
);
width = 702;
},
{
layerId = "0BD25E4B-8A11-4E34-A837-2DA28743BADD";
paths = (
{
closed = 1;
nodes = (
"253 0 LINE",
"346 519 LINE",
"440 0 LINE",
"527 0 LINE",
"670 700 LINE",
"568 700 LINE",
"485 186 LINE",
"388 700 LINE",
"300 700 LINE",
"210 186 LINE",
"125 700 LINE",
"21 700 LINE",
"165 0 LINE"
);
}
);
width = 691;
}
);
leftKerningGroup = V;
rightKerningGroup = V;
unicode = 0057;
},
{
glyphname = X;
lastChange = "2016-12-20 00:27:53 +0000";
layers = (
{
layerId = "262880E7-CFE1-4BDA-902E-E24798F3240A";
paths = (
{
closed = 1;
nodes = (
"56 0 LINE",
"225 330 LINE",
"394 0 LINE",
"419 0 LINE",
"236 349 LINE",
"419 700 LINE",
"394 700 LINE",
"225 369 LINE",
"56 700 LINE",
"31 700 LINE",
"214 350 LINE",
"31 0 LINE"
);
}
);
width = 450;
},
{
layerId = "4E2227F3-52E4-4048-A8EE-327B486EF0A4";
paths = (
{
closed = 1;
nodes = (
"200 0 LINE",
"247 162 LINE",
"293 0 LINE",
"484 0 LINE",
"346 350 LINE",
"484 700 LINE",
"292 700 LINE",
"247 537 LINE",
"201 700 LINE",
"9 700 LINE",
"147 350 LINE",
"9 0 LINE"
);
}
);
width = 493;
},
{
layerId = "0BD25E4B-8A11-4E34-A837-2DA28743BADD";
paths = (
{
closed = 1;
nodes = (
"123 0 LINE",
"235 252 LINE",
"347 0 LINE",
"449 0 LINE",
"287 349 LINE",
"449 700 LINE",
"346 700 LINE",
"235 447 LINE",
"124 700 LINE",
"21 700 LINE",
"183 350 LINE",
"21 0 LINE"
);
}
);
width = 470;
}
);
rightKerningGroup = X;
unicode = 0058;
},
{
glyphname = Y;
lastChange = "2016-12-24 21:49:28 +0000";
layers = (
{
layerId = "262880E7-CFE1-4BDA-902E-E24798F3240A";
paths = (
{
closed = 1;
nodes = (
"233 0 LINE",
"233 339 LINE",
"411 700 LINE",
"389 700 LINE",
"222 358 LINE",
"53 700 LINE",
"31 700 LINE",
"211 339 LINE",
"211 0 LINE"
);
}
);
width = 442;
},
{
layerId = "4E2227F3-52E4-4048-A8EE-327B486EF0A4";
paths = (
{
closed = 1;
nodes = (
"340 2 LINE",
"340 251 LINE",
"484 700 LINE",
"286 700 LINE",
"247 452 LINE",
"207 700 LINE",
"9 700 LINE",
"152 251 LINE",
"152 2 LINE"
);
}
);
width = 493;
},
{
layerId = "0BD25E4B-8A11-4E34-A837-2DA28743BADD";
paths = (
{
closed = 1;
nodes = (
"281 1 LINE",
"281 308 LINE",
"444 700 LINE",
"337 700 LINE",
"231 411 LINE",
"125 700 LINE",
"17 700 LINE",
"181 308 LINE",
"181 1 LINE"
);
}
);
width = 462;
}
);
leftKerningGroup = Y;
unicode = 0059;
},
{
glyphname = Z;
lastChange = "2016-12-24 21:37:28 +0000";
layers = (
{
layerId = "262880E7-CFE1-4BDA-902E-E24798F3240A";
paths = (
{
closed = 1;
nodes = (
"387 0 LINE",
"387 21 LINE",
"58 21 LINE",
"387 679 LINE",
"387 700 LINE",
"33 700 LINE",
"33 679 LINE",
"363 679 LINE",
"33 21 LINE",
"33 0 LINE"
);
}
);
width = 430;
},
{
layerId = "4E2227F3-52E4-4048-A8EE-327B486EF0A4";
paths = (
{
closed = 1;
nodes = (
"403 0 LINE",
"403 170 LINE",
"205 170 LINE",
"403 530 LINE",
"403 700 LINE",
"9 700 LINE",
"9 530 LINE",
"205 530 LINE",
"9 170 LINE",
"9 0 LINE"
);
}
);
width = 415;
},
{
layerId = "0BD25E4B-8A11-4E34-A837-2DA28743BADD";
paths = (
{
closed = 1;
nodes = (
"381 0 LINE",
"381 90 LINE",
"125 90 LINE",
"381 610 LINE",
"381 700 LINE",
"21 700 LINE",
"21 610 LINE",
"275 610 LINE",
"21 90 LINE",
"21 0 LINE"
);
}
);
width = 409;
}
);
leftKerningGroup = Z;
rightKerningGroup = Z;
unicode = 005A;
},
{
glyphname = a;
lastChange = "2016-12-25 10:50:26 +0000";
layers = (
{
layerId = "262880E7-CFE1-4BDA-902E-E24798F3240A";
paths = (
{
closed = 1;
nodes = (
"396 0 LINE",
"396 342 LINE SMOOTH",
"396 447 OFFCURVE",
"343 508 OFFCURVE",
"241 508 CURVE SMOOTH",
"143 508 OFFCURVE",
"79 450 OFFCURVE",
"79 352 CURVE SMOOTH",
"79 351 LINE",
"101 351 LINE",
"101 355 LINE SMOOTH",
"101 438 OFFCURVE",
"157 487 OFFCURVE",
"241 487 CURVE SMOOTH",
"329 487 OFFCURVE",
"374 434 OFFCURVE",
"374 345 CURVE SMOOTH",
"374 0 LINE"
);
},
{
closed = 1;
nodes = (
"303 -8 OFFCURVE",
"391 37 OFFCURVE",
"391 142 CURVE",
"391 277 LINE",
"248 277 LINE",
"118 277 OFFCURVE",
"53 221 OFFCURVE",
"53 120 CURVE SMOOTH",
"53 13 OFFCURVE",
"136 -8 OFFCURVE",
"204 -8 CURVE SMOOTH"
);
},
{
closed = 1;
nodes = (
"135 13 OFFCURVE",
"75 40 OFFCURVE",
"75 121 CURVE SMOOTH",
"75 207 OFFCURVE",
"138 256 OFFCURVE",
"248 256 CURVE",
"374 256 LINE",
"374 142 LINE SMOOTH",
"374 52 OFFCURVE",
"291 13 OFFCURVE",
"206 13 CURVE SMOOTH"
);
}
);
width = 476;
},
{
layerId = "4E2227F3-52E4-4048-A8EE-327B486EF0A4";
paths = (
{
closed = 1;
nodes = (
"455 0 LINE",
"455 360 LINE SMOOTH",
"455 461 OFFCURVE",
"368 528 OFFCURVE",
"238 528 CURVE SMOOTH",
"111 528 OFFCURVE",
"24 465 OFFCURVE",
"24 370 CURVE SMOOTH",
"24 339 LINE",
"212 332 LINE",
"212 337 LINE SMOOTH",
"212 355 OFFCURVE",
"223 367 OFFCURVE",
"238 367 CURVE SMOOTH",
"255 367 OFFCURVE",
"267 355 OFFCURVE",
"267 337 CURVE SMOOTH",
"267 0 LINE"
);
},
{
closed = 1;
nodes = (
"256 -7 OFFCURVE",
"356 89 OFFCURVE",
"356 197 CURVE",
"356 313 LINE",
"227 313 LINE",
"101 313 OFFCURVE",
"18 297 OFFCURVE",
"18 151 CURVE SMOOTH",
"18 9 OFFCURVE",
"92 -9 OFFCURVE",
"161 -8 CURVE SMOOTH"
);
},
{
closed = 1;
nodes = (
"222 125 OFFCURVE",
"210 134 OFFCURVE",
"210 153 CURVE SMOOTH",
"210 170 OFFCURVE",
"222 185 OFFCURVE",
"241 185 CURVE",
"267 185 LINE",
"267 152 LINE SMOOTH",
"267 135 OFFCURVE",
"249 125 OFFCURVE",
"235 125 CURVE SMOOTH"
);
}
);
width = 479;
},
{
layerId = "0BD25E4B-8A11-4E34-A837-2DA28743BADD";
paths = (
{
closed = 1;
nodes = (
"424 0 LINE",
"424 343 LINE SMOOTH",
"424 449 OFFCURVE",
"354 517 OFFCURVE",
"241 517 CURVE SMOOTH",
"128 517 OFFCURVE",
"53 450 OFFCURVE",
"53 345 CURVE SMOOTH",
"53 333 LINE",
"153 333 LINE",
"153 343 LINE SMOOTH",
"153 394 OFFCURVE",
"189 427 OFFCURVE",
"240 427 CURVE SMOOTH",
"293 427 OFFCURVE",
"324 392 OFFCURVE",
"324 337 CURVE SMOOTH",
"324 0 LINE"
);
},
{
closed = 1;
nodes = (
"302 -8 OFFCURVE",
"365 55 OFFCURVE",
"365 162 CURVE",
"365 301 LINE",
"238 301 LINE",
"114 301 OFFCURVE",
"37 256 OFFCURVE",
"37 140 CURVE SMOOTH",
"37 12 OFFCURVE",
"130 -8 OFFCURVE",
"192 -8 CURVE SMOOTH"
);
},
{
closed = 1;
nodes = (
"174 79 OFFCURVE",
"137 98 OFFCURVE",
"137 146 CURVE SMOOTH",
"137 198 OFFCURVE",
"182 222 OFFCURVE",
"265 222 CURVE",
"324 222 LINE",
"324 183 LINE SMOOTH",
"324 114 OFFCURVE",
"259 79 OFFCURVE",
"210 79 CURVE SMOOTH"
);
}
);
width = 477;
}
);
leftKerningGroup = a;
rightKerningGroup = b;
unicode = 0061;
},
{
glyphname = b;
lastChange = "2016-12-20 00:29:03 +0000";
layers = (
{
components = (
{
name = b.bowl;
transform = "{1, 0, 0, 1, 83, 0}";
}
);
layerId = "262880E7-CFE1-4BDA-902E-E24798F3240A";
paths = (
{
closed = 1;
nodes = (
"102 0 LINE",
"102 700 LINE",
"80 700 LINE",
"80 0 LINE"
);
}
);
width = 468;
},
{
components = (
{
name = b.bowl;
transform = "{1, 0, 0, 1, 178, 0}";
}
);
layerId = "4E2227F3-52E4-4048-A8EE-327B486EF0A4";
paths = (
{
closed = 1;
nodes = (
"212 0 LINE",
"212 700 LINE",
"24 700 LINE",
"24 0 LINE"
);
}
);
width = 458;
},
{
components = (
{
name = b.bowl;
transform = "{1, 0, 0, 1, 129, 0}";
}
);
layerId = "0BD25E4B-8A11-4E34-A837-2DA28743BADD";
paths = (
{
closed = 1;
nodes = (
"155 0 LINE",
"155 700 LINE",
"56 700 LINE",
"56 0 LINE"
);
}
);
width = 482;
}
);
leftKerningGroup = b;
rightKerningGroup = n;
unicode = 0062;
},
{
glyphname = c;
lastChange = "2016-12-24 21:18:13 +0000";
layers = (
{
layerId = "262880E7-CFE1-4BDA-902E-E24798F3240A";
paths = (
{
closed = 1;
nodes = (
"338 -8 OFFCURVE",
"405 50 OFFCURVE",
"405 136 CURVE SMOOTH",
"405 149 LINE",
"383 149 LINE",
"383 135 LINE SMOOTH",
"383 62 OFFCURVE",
"326 13 OFFCURVE",
"238 13 CURVE SMOOTH",
"151 13 OFFCURVE",
"92 70 OFFCURVE",
"92 155 CURVE SMOOTH",
"92 345 LINE SMOOTH",
"92 430 OFFCURVE",
"151 487 OFFCURVE",
"238 487 CURVE SMOOTH",
"326 487 OFFCURVE",
"383 438 OFFCURVE",
"383 365 CURVE SMOOTH",
"383 351 LINE",
"405 351 LINE",
"405 364 LINE SMOOTH",
"405 450 OFFCURVE",
"338 508 OFFCURVE",
"238 508 CURVE SMOOTH",
"138 508 OFFCURVE",
"70 442 OFFCURVE",
"70 344 CURVE SMOOTH",
"70 156 LINE SMOOTH",
"70 58 OFFCURVE",
"138 -8 OFFCURVE",
"238 -8 CURVE SMOOTH"
);
}
);
width = 465;
},
{
layerId = "4E2227F3-52E4-4048-A8EE-327B486EF0A4";
paths = (
{
closed = 1;
nodes = (
"370 -7 OFFCURVE",
"446 67 OFFCURVE",
"446 190 CURVE SMOOTH",
"446 212 LINE",
"258 212 LINE",
"258 185 LINE SMOOTH",
"258 164 OFFCURVE",
"250 153 OFFCURVE",
"234 153 CURVE SMOOTH",
"217 153 OFFCURVE",
"209 164 OFFCURVE",
"209 185 CURVE SMOOTH",
"209 335 LINE SMOOTH",
"209 356 OFFCURVE",
"217 367 OFFCURVE",
"234 367 CURVE SMOOTH",
"250 367 OFFCURVE",
"258 356 OFFCURVE",
"258 335 CURVE SMOOTH",
"258 307 LINE",
"446 307 LINE",
"446 330 LINE SMOOTH",
"446 454 OFFCURVE",
"370 528 OFFCURVE",
"234 528 CURVE SMOOTH",
"98 528 OFFCURVE",
"21 454 OFFCURVE",
"21 330 CURVE SMOOTH",
"21 190 LINE SMOOTH",
"21 67 OFFCURVE",
"98 -7 OFFCURVE",
"234 -7 CURVE SMOOTH"
);
}
);
width = 464;
},
{
layerId = "0BD25E4B-8A11-4E34-A837-2DA28743BADD";
paths = (
{
closed = 1;
nodes = (
"355 -8 OFFCURVE",
"426 61 OFFCURVE",
"426 164 CURVE SMOOTH",
"426 178 LINE",
"327 178 LINE",
"327 162 LINE SMOOTH",
"327 114 OFFCURVE",
"293 82 OFFCURVE",
"238 82 CURVE SMOOTH",
"184 82 OFFCURVE",
"149 118 OFFCURVE",
"149 173 CURVE SMOOTH",
"149 336 LINE SMOOTH",
"149 391 OFFCURVE",
"184 427 OFFCURVE",
"238 427 CURVE SMOOTH",
"293 427 OFFCURVE",
"327 396 OFFCURVE",
"327 347 CURVE SMOOTH",
"327 330 LINE",
"426 330 LINE",
"426 344 LINE SMOOTH",
"426 448 OFFCURVE",
"355 517 OFFCURVE",
"238 517 CURVE SMOOTH",
"121 517 OFFCURVE",
"49 444 OFFCURVE",
"49 333 CURVE SMOOTH",
"49 174 LINE SMOOTH",
"49 64 OFFCURVE",
"121 -8 OFFCURVE",
"238 -8 CURVE SMOOTH"
);
}
);
width = 468;
}
);
leftKerningGroup = o;
rightKerningGroup = c;
unicode = 0063;
},
{
glyphname = e;
lastChange = "2016-12-24 21:50:49 +0000";
layers = (
{
layerId = "262880E7-CFE1-4BDA-902E-E24798F3240A";
paths = (
{
closed = 1;
nodes = (
"321 -8 OFFCURVE",
"387 39 OFFCURVE",
"403 109 CURVE",
"381 108 LINE",
"365 51 OFFCURVE",
"308 13 OFFCURVE",
"239 13 CURVE SMOOTH",
"151 13 OFFCURVE",
"92 70 OFFCURVE",
"92 155 CURVE SMOOTH",
"92 345 LINE SMOOTH",
"92 430 OFFCURVE",
"151 487 OFFCURVE",
"238 487 CURVE SMOOTH",
"327 487 OFFCURVE",
"385 430 OFFCURVE",
"385 345 CURVE SMOOTH",
"385 265 LINE",
"82 265 LINE",
"82 244 LINE",
"407 244 LINE",
"407 343 LINE SMOOTH",
"407 442 OFFCURVE",
"340 508 OFFCURVE",
"238 508 CURVE SMOOTH",
"138 508 OFFCURVE",
"70 442 OFFCURVE",
"70 344 CURVE SMOOTH",
"70 156 LINE SMOOTH",
"70 58 OFFCURVE",
"138 -8 OFFCURVE",
"239 -8 CURVE SMOOTH"
);
}
);
width = 477;
},
{
layerId = "4E2227F3-52E4-4048-A8EE-327B486EF0A4";
paths = (
{
closed = 1;
nodes = (
"370 -7 OFFCURVE",
"447 61 OFFCURVE",
"446 181 CURVE",
"258 183 LINE",
"257 159 OFFCURVE",
"248 146 OFFCURVE",
"233 146 CURVE SMOOTH",
"217 146 OFFCURVE",
"209 159 OFFCURVE",
"209 185 CURVE SMOOTH",
"209 335 LINE SMOOTH",
"209 358 OFFCURVE",
"217 370 OFFCURVE",
"234 370 CURVE SMOOTH",
"250 370 OFFCURVE",
"258 358 OFFCURVE",
"258 335 CURVE SMOOTH",
"258 313 LINE",
"137 313 LINE",
"137 208 LINE",
"446 208 LINE",
"446 331 LINE SMOOTH",
"446 457 OFFCURVE",
"370 528 OFFCURVE",
"234 528 CURVE SMOOTH",
"98 528 OFFCURVE",
"21 457 OFFCURVE",
"21 331 CURVE SMOOTH",
"21 189 LINE SMOOTH",
"21 64 OFFCURVE",
"97 -7 OFFCURVE",
"233 -7 CURVE SMOOTH"
);
}
);
width = 457;
},
{
layerId = "0BD25E4B-8A11-4E34-A837-2DA28743BADD";
paths = (
{
closed = 1;
nodes = (
"342 -8 OFFCURVE",
"412 54 OFFCURVE",
"420 145 CURVE",
"320 147 LINE",
"312 108 OFFCURVE",
"279 82 OFFCURVE",
"234 82 CURVE SMOOTH",
"179 82 OFFCURVE",
"145 119 OFFCURVE",
"145 173 CURVE SMOOTH",
"145 337 LINE SMOOTH",
"145 391 OFFCURVE",
"179 428 OFFCURVE",
"234 428 CURVE SMOOTH",
"289 428 OFFCURVE",
"322 391 OFFCURVE",
"322 337 CURVE SMOOTH",
"322 300 LINE",
"106 300 LINE",
"106 215 LINE",
"422 215 LINE",
"422 333 LINE SMOOTH",
"422 444 OFFCURVE",
"351 518 OFFCURVE",
"234 518 CURVE SMOOTH",
"117 518 OFFCURVE",
"45 444 OFFCURVE",
"45 333 CURVE SMOOTH",
"45 177 LINE SMOOTH",
"45 66 OFFCURVE",
"116 -8 OFFCURVE",
"234 -8 CURVE SMOOTH"
);
}
);
width = 467;
}
);
leftKerningGroup = o;
rightKerningGroup = o;
unicode = 0065;
},
{
glyphname = f;
lastChange = "2016-12-24 21:45:46 +0000";
layers = (
{
layerId = "262880E7-CFE1-4BDA-902E-E24798F3240A";
paths = (
{
closed = 1;
nodes = (
"122 0 LINE",
"122 550 LINE SMOOTH",
"122 637 OFFCURVE",
"151 689 OFFCURVE",
"269 689 CURVE",
"269 710 LINE",
"138 710 OFFCURVE",
"100 650 OFFCURVE",
"100 550 CURVE SMOOTH",
"100 0 LINE"
);
},
{
closed = 1;
nodes = (
"239 479 LINE",
"239 500 LINE",
"22 500 LINE",
"22 479 LINE"
);
}
);
width = 259;
},
{
layerId = "4E2227F3-52E4-4048-A8EE-327B486EF0A4";
paths = (
{
closed = 1;
nodes = (
"229 0 LINE",
"229 539 LINE",
"229 557 OFFCURVE",
"242 572 OFFCURVE",
"266 575 CURVE",
"266 700 LINE",
"124 707 OFFCURVE",
"41 683 OFFCURVE",
"41 556 CURVE",
"41 0 LINE"
);
},
{
closed = 1;
nodes = (
"287 390 LINE",
"287 520 LINE",
"0 520 LINE",
"0 390 LINE"
);
}
);
width = 293;
},
{
layerId = "0BD25E4B-8A11-4E34-A837-2DA28743BADD";
paths = (
{
closed = 1;
nodes = (
"170 0 LINE",
"170 562 LINE",
"170 618 OFFCURVE",
"214 629 OFFCURVE",
"261 630 CURVE",
"261 706 LINE",
"100 709 OFFCURVE",
"70 665 OFFCURVE",
"70 553 CURVE",
"70 0 LINE"
);
},
{
closed = 1;
nodes = (
"256 417 LINE",
"256 510 LINE",
"12 510 LINE",
"12 417 LINE"
);
}
);
width = 270;
}
);
leftKerningGroup = t;
unicode = 0066;
},
{
glyphname = g;
lastChange = "2016-12-20 00:27:53 +0000";
layers = (
{
components = (
{
name = b.bowl;
transform = "{-1, 0, 0, 1, 405, 0}";
}
);
layerId = "262880E7-CFE1-4BDA-902E-E24798F3240A";
paths = (
{
closed = 1;
nodes = (
"337 -203 OFFCURVE",
"409 -137 OFFCURVE",
"409 0 CURVE SMOOTH",
"409 500 LINE",
"386 500 LINE",
"386 0 LINE SMOOTH",
"386 -123 OFFCURVE",
"322 -182 OFFCURVE",
"205 -178 CURVE",
"205 -199 LINE"
);
}
);
width = 489;
},
{
components = (
{
name = b.bowl;
transform = "{-1, 0, 0, 1, 288, 0}";
}
);
layerId = "4E2227F3-52E4-4048-A8EE-327B486EF0A4";
paths = (
{
closed = 1;
nodes = (
"386 -233 OFFCURVE",
"439 -115 OFFCURVE",
"439 34 CURVE SMOOTH",
"439 520 LINE",
"251 520 LINE",
"251 54 LINE SMOOTH",
"251 -14 OFFCURVE",
"244 -56 OFFCURVE",
"99 -45 CURVE",
"99 -207 LINE"
);
}
);
width = 463;
},
{
components = (
{
name = b.bowl;
transform = "{-1, 0, 0, 1, 353, 0}";
}
);
layerId = "0BD25E4B-8A11-4E34-A837-2DA28743BADD";
paths = (
{
closed = 1;
nodes = (
"363 -217 OFFCURVE",
"426 -127 OFFCURVE",
"426 16 CURVE SMOOTH",
"426 509 LINE",
"326 509 LINE",
"326 25 LINE SMOOTH",
"326 -72 OFFCURVE",
"289 -123 OFFCURVE",
"159 -116 CURVE",
"159 -203 LINE"
);
}
);
width = 482;
}
);
leftKerningGroup = d;
rightKerningGroup = g;
unicode = 0067;
},
{
glyphname = h;
lastChange = "2016-12-20 00:27:53 +0000";
layers = (
{
components = (
{
name = n.curve;
transform = "{1, 0, 0, 1, 84, 0}";
}
);
layerId = "262880E7-CFE1-4BDA-902E-E24798F3240A";
paths = (
{
closed = 1;
nodes = (
"102 0 LINE",
"102 700 LINE",
"80 700 LINE",
"80 0 LINE"
);
}
);
width = 478;
},
{
components = (
{
name = n.curve;
transform = "{1, 0, 0, 1, 176, 0}";
}
);
layerId = "4E2227F3-52E4-4048-A8EE-327B486EF0A4";
paths = (
{
closed = 1;
nodes = (
"212 0 LINE",
"212 700 LINE",
"24 700 LINE",
"24 0 LINE"
);
}
);
width = 465;
},
{
components = (
{
name = n.curve;
transform = "{1, 0, 0, 1, 129, 0}";
}
);
layerId = "0BD25E4B-8A11-4E34-A837-2DA28743BADD";
paths = (
{
closed = 1;
nodes = (
"155 0 LINE",
"155 700 LINE",
"56 700 LINE",
"56 0 LINE"
);
}
);
width = 476;
}
);
leftKerningGroup = b;
rightKerningGroup = n;
unicode = 0068;
},
{
glyphname = i;
lastChange = "2016-12-20 00:27:53 +0000";
layers = (
{
layerId = "262880E7-CFE1-4BDA-902E-E24798F3240A";
paths = (
{
closed = 1;
nodes = (
"102 0 LINE",
"102 500 LINE",
"80 500 LINE",
"80 0 LINE"
);
},
{
closed = 1;
nodes = (
"108 660 OFFCURVE",
"121 673 OFFCURVE",
"121 690 CURVE SMOOTH",
"121 706 OFFCURVE",
"108 719 OFFCURVE",
"91 719 CURVE SMOOTH",
"74 719 OFFCURVE",
"60 706 OFFCURVE",
"60 690 CURVE SMOOTH",
"60 673 OFFCURVE",
"74 660 OFFCURVE",
"91 660 CURVE SMOOTH"
);
}
);
width = 182;
},
{
layerId = "4E2227F3-52E4-4048-A8EE-327B486EF0A4";
paths = (
{
closed = 1;
nodes = (
"212 0 LINE",
"212 520 LINE",
"24 520 LINE",
"24 0 LINE"
);
},
{
closed = 1;
nodes = (
"181 540 OFFCURVE",
"222 582 OFFCURVE",
"222 645 CURVE SMOOTH",
"222 708 OFFCURVE",
"181 750 OFFCURVE",
"118 750 CURVE SMOOTH",
"56 750 OFFCURVE",
"14 708 OFFCURVE",
"14 645 CURVE SMOOTH",
"14 582 OFFCURVE",
"56 540 OFFCURVE",
"118 540 CURVE SMOOTH"
);
}
);
width = 236;
},
{
layerId = "0BD25E4B-8A11-4E34-A837-2DA28743BADD";
paths = (
{
closed = 1;
nodes = (
"162 0 LINE",
"162 509 LINE",
"63 509 LINE",
"63 0 LINE"
);
},
{
closed = 1;
nodes = (
"151 604 OFFCURVE",
"177 631 OFFCURVE",
"177 669 CURVE SMOOTH",
"177 707 OFFCURVE",
"151 733 OFFCURVE",
"113 733 CURVE SMOOTH",
"75 733 OFFCURVE",
"48 707 OFFCURVE",
"48 669 CURVE SMOOTH",
"48 631 OFFCURVE",
"75 604 OFFCURVE",
"113 604 CURVE SMOOTH"
);
}
);
width = 225;
}
);
leftKerningGroup = i;
unicode = 0069;
},
{
glyphname = j;
lastChange = "2016-12-20 00:27:53 +0000";
layers = (
{
layerId = "262880E7-CFE1-4BDA-902E-E24798F3240A";
paths = (
{
closed = 1;
nodes = (
"91 -211 OFFCURVE",
"142 -159 OFFCURVE",
"142 -74 CURVE SMOOTH",
"142 500 LINE",
"120 500 LINE",
"120 -74 LINE SMOOTH",
"120 -146 OFFCURVE",
"78 -190 OFFCURVE",
"8 -190 CURVE",
"8 -211 LINE"
);
},
{
closed = 1;
nodes = (
"150 660 OFFCURVE",
"162 671 OFFCURVE",
"162 690 CURVE SMOOTH",
"162 709 OFFCURVE",
"150 719 OFFCURVE",
"131 719 CURVE SMOOTH",
"113 719 OFFCURVE",
"100 709 OFFCURVE",
"100 690 CURVE SMOOTH",
"100 671 OFFCURVE",
"113 660 OFFCURVE",
"131 660 CURVE SMOOTH"
);
}
);
width = 242;
},
{
layerId = "4E2227F3-52E4-4048-A8EE-327B486EF0A4";
paths = (
{
closed = 1;
nodes = (
"219 -210 OFFCURVE",
"224 -120 OFFCURVE",
"224 29 CURVE SMOOTH",
"224 520 LINE",
"36 520 LINE",
"36 29 LINE SMOOTH",
"36 -19 OFFCURVE",
"21 -49 OFFCURVE",
"-60 -41 CURVE",
"-60 -201 LINE"
);
},
{
closed = 1;
nodes = (
"191 540 OFFCURVE",
"234 587 OFFCURVE",
"234 645 CURVE SMOOTH",
"234 703 OFFCURVE",
"182 749 OFFCURVE",
"130 749 CURVE SMOOTH",
"77 749 OFFCURVE",
"26 703 OFFCURVE",
"26 645 CURVE SMOOTH",
"26 587 OFFCURVE",
"68 540 OFFCURVE",
"130 540 CURVE SMOOTH"
);
}
);
width = 254;
},
{
layerId = "0BD25E4B-8A11-4E34-A837-2DA28743BADD";
paths = (
{
closed = 1;
nodes = (
"154 -211 OFFCURVE",
"183 -141 OFFCURVE",
"183 -26 CURVE SMOOTH",
"183 509 LINE",
"84 509 LINE",
"84 -26 LINE SMOOTH",
"84 -87 OFFCURVE",
"54 -124 OFFCURVE",
"-21 -120 CURVE",
"-21 -206 LINE"
);
},
{
closed = 1;
nodes = (
"172 604 OFFCURVE",
"199 632 OFFCURVE",
"199 669 CURVE SMOOTH",
"199 706 OFFCURVE",
"168 733 OFFCURVE",
"134 733 CURVE SMOOTH",
"99 733 OFFCURVE",
"68 706 OFFCURVE",
"68 669 CURVE SMOOTH",
"68 632 OFFCURVE",
"95 604 OFFCURVE",
"134 604 CURVE SMOOTH"
);
}
);
width = 253;
}
);
leftKerningGroup = j;
unicode = 006A;
},
{
glyphname = k;
lastChange = "2016-12-20 01:42:57 +0000";
layers = (
{
guideLines = (
{
angle = 180;
position = "{287, 0}";
showMeasurement = 1;
},
{
angle = 180;
position = "{233, 332}";
showMeasurement = 1;
}
);
layerId = "262880E7-CFE1-4BDA-902E-E24798F3240A";
paths = (
{
closed = 1;
nodes = (
"122 0 LINE",
"122 201 LINE",
"270 353 LINE",
"407 0 LINE",
"431 0 LINE",
"286 370 LINE",
"411 500 LINE",
"383 500 LINE",
"122 227 LINE",
"122 700 LINE",
"100 700 LINE",
"100 0 LINE"
);
}
);
width = 461;
},
{
layerId = "4E2227F3-52E4-4048-A8EE-327B486EF0A4";
paths = (
{
closed = 1;
nodes = (
"218 0 LINE",
"218 137 LINE",
"231 166 LINE",
"283 0 LINE",
"477 0 LINE",
"346 315 LINE",
"471 520 LINE",
"278 520 LINE",
"218 392 LINE",
"218 700 LINE",
"30 700 LINE",
"30 0 LINE"
);
}
);
width = 486;
},
{
layerId = "0BD25E4B-8A11-4E34-A837-2DA28743BADD";
paths = (
{
closed = 1;
nodes = (
"170 0 LINE",
"170 186 LINE",
"240 267 LINE",
"348 0 LINE",
"451 0 LINE",
"305 334 LINE",
"438 509 LINE",
"333 509 LINE",
"170 313 LINE",
"170 700 LINE",
"70 700 LINE",
"70 0 LINE"
);
}
);
width = 480;
}
);
leftKerningGroup = b;
rightKerningGroup = k;
unicode = 006B;
},
{
glyphname = l;
lastChange = "2016-12-20 00:27:53 +0000";
layers = (
{
layerId = "262880E7-CFE1-4BDA-902E-E24798F3240A";
paths = (
{
closed = 1;
nodes = (
"102 0 LINE",
"102 700 LINE",
"80 700 LINE",
"80 0 LINE"
);
}
);
width = 182;
},
{
layerId = "4E2227F3-52E4-4048-A8EE-327B486EF0A4";
paths = (
{
closed = 1;
nodes = (
"212 0 LINE",
"212 700 LINE",
"24 700 LINE",
"24 0 LINE"
);
}
);
width = 236;
},
{
layerId = "0BD25E4B-8A11-4E34-A837-2DA28743BADD";
paths = (
{
closed = 1;
nodes = (
"169 0 LINE",
"169 700 LINE",
"70 700 LINE",
"70 0 LINE"
);
}
);
width = 239;
}
);
leftKerningGroup = l;
rightKerningGroup = l;
unicode = 006C;
},
{
glyphname = m;
lastChange = "2016-12-20 00:55:40 +0000";
layers = (
{
components = (
{
name = n.curve;
transform = "{1, 0, 0, 1, 84, 0}";
},
{
name = n.curve;
transform = "{1, 0, 0, 1, 390, 0}";
}
);
layerId = "262880E7-CFE1-4BDA-902E-E24798F3240A";
paths = (
{
closed = 1;
nodes = (
"102 0 LINE",
"102 500 LINE",
"80 500 LINE",
"80 0 LINE"
);
}
);
width = 784;
},
{
components = (
{
name = n.curve;
transform = "{1, 0, 0, 1, 176, 0}";
},
{
name = n.curve;
transform = "{1, 0, 0, 1, 408, 0}";
}
);
layerId = "4E2227F3-52E4-4048-A8EE-327B486EF0A4";
paths = (
{
closed = 1;
nodes = (
"212 0 LINE",
"212 520 LINE",
"24 520 LINE",
"24 0 LINE"
);
}
);
width = 697;
},
{
components = (
{
name = n.curve;
transform = "{1, 0, 0, 1, 129, 0}";
},
{
name = n.curve;
transform = "{1, 0, 0, 1, 400, 0}";
}
);
layerId = "0BD25E4B-8A11-4E34-A837-2DA28743BADD";
paths = (
{
closed = 1;
nodes = (
"155 0 LINE",
"155 509 LINE",
"56 509 LINE",
"56 0 LINE"
);
}
);
width = 747;
}
);
leftKerningGroup = n;
rightKerningGroup = h;
unicode = 006D;
},
{
glyphname = n;
lastChange = "2016-12-20 00:28:26 +0000";
layers = (
{
components = (
{
name = n.curve;
transform = "{1, 0, 0, 1, 84, 0}";
}
);
layerId = "262880E7-CFE1-4BDA-902E-E24798F3240A";
paths = (
{
closed = 1;
nodes = (
"102 0 LINE",
"102 500 LINE",
"80 500 LINE",
"80 0 LINE"
);
}
);
width = 478;
},
{
components = (
{
name = n.curve;
transform = "{1, 0, 0, 1, 176, 0}";
}
);
layerId = "4E2227F3-52E4-4048-A8EE-327B486EF0A4";
paths = (
{
closed = 1;
nodes = (
"212 0 LINE",
"212 520 LINE",
"24 520 LINE",
"24 0 LINE"
);
}
);
width = 465;
},
{
components = (
{
name = n.curve;
transform = "{1, 0, 0, 1, 129, 0}";
}
);
layerId = "0BD25E4B-8A11-4E34-A837-2DA28743BADD";
paths = (
{
closed = 1;
nodes = (
"155 0 LINE",
"155 509 LINE",
"56 509 LINE",
"56 0 LINE"
);
}
);
width = 476;
}
);
leftKerningGroup = n;
rightKerningGroup = n;
unicode = 006E;
},
{
glyphname = o;
lastChange = "2016-12-24 21:20:52 +0000";
layers = (
{
guideLines = (
{
angle = 180;
position = "{231, 250}";
showMeasurement = 1;
},
{
angle = 120;
position = "{231, 250}";
showMeasurement = 1;
},
{
angle = 60;
position = "{231, 250}";
showMeasurement = 1;
}
);
layerId = "262880E7-CFE1-4BDA-902E-E24798F3240A";
paths = (
{
closed = 1;
nodes = (
"330 -8 OFFCURVE",
"397 58 OFFCURVE",
"397 156 CURVE SMOOTH",
"397 344 LINE SMOOTH",
"397 442 OFFCURVE",
"330 508 OFFCURVE",
"228 508 CURVE SMOOTH",
"128 508 OFFCURVE",
"60 442 OFFCURVE",
"60 344 CURVE SMOOTH",
"60 156 LINE SMOOTH",
"60 58 OFFCURVE",
"128 -8 OFFCURVE",
"228 -8 CURVE SMOOTH"
);
},
{
closed = 1;
nodes = (
"141 13 OFFCURVE",
"82 70 OFFCURVE",
"82 155 CURVE SMOOTH",
"82 345 LINE SMOOTH",
"82 430 OFFCURVE",
"141 487 OFFCURVE",
"228 487 CURVE SMOOTH",
"317 487 OFFCURVE",
"375 430 OFFCURVE",
"375 345 CURVE SMOOTH",
"375 155 LINE SMOOTH",
"375 70 OFFCURVE",
"317 13 OFFCURVE",
"228 13 CURVE SMOOTH"
);
}
);
width = 457;
},
{
layerId = "4E2227F3-52E4-4048-A8EE-327B486EF0A4";
paths = (
{
closed = 1;
nodes = (
"367 -7 OFFCURVE",
"443 67 OFFCURVE",
"443 190 CURVE SMOOTH",
"443 330 LINE SMOOTH",
"443 456 OFFCURVE",
"367 532 OFFCURVE",
"231 532 CURVE SMOOTH",
"95 532 OFFCURVE",
"18 456 OFFCURVE",
"18 330 CURVE SMOOTH",
"18 190 LINE SMOOTH",
"18 67 OFFCURVE",
"95 -7 OFFCURVE",
"231 -7 CURVE SMOOTH"
);
},
{
closed = 1;
nodes = (
"214 153 OFFCURVE",
"206 164 OFFCURVE",
"206 185 CURVE SMOOTH",
"206 335 LINE SMOOTH",
"206 356 OFFCURVE",
"214 367 OFFCURVE",
"231 367 CURVE SMOOTH",
"247 367 OFFCURVE",
"255 356 OFFCURVE",
"255 335 CURVE SMOOTH",
"255 185 LINE SMOOTH",
"255 164 OFFCURVE",
"247 153 OFFCURVE",
"231 153 CURVE SMOOTH"
);
}
);
width = 461;
},
{
layerId = "0BD25E4B-8A11-4E34-A837-2DA28743BADD";
paths = (
{
closed = 1;
nodes = (
"349 -8 OFFCURVE",
"420 66 OFFCURVE",
"420 176 CURVE SMOOTH",
"420 335 LINE SMOOTH",
"420 447 OFFCURVE",
"349 519 OFFCURVE",
"231 519 CURVE SMOOTH",
"115 519 OFFCURVE",
"42 447 OFFCURVE",
"42 335 CURVE SMOOTH",
"42 176 LINE SMOOTH",
"42 66 OFFCURVE",
"115 -8 OFFCURVE",
"231 -8 CURVE SMOOTH"
);
},
{
closed = 1;
nodes = (
"177 82 OFFCURVE",
"142 118 OFFCURVE",
"142 173 CURVE SMOOTH",
"142 338 LINE SMOOTH",
"142 393 OFFCURVE",
"177 429 OFFCURVE",
"231 429 CURVE SMOOTH",
"286 429 OFFCURVE",
"321 393 OFFCURVE",
"321 338 CURVE SMOOTH",
"321 173 LINE SMOOTH",
"321 118 OFFCURVE",
"286 82 OFFCURVE",
"231 82 CURVE SMOOTH"
);
}
);
width = 462;
}
);
leftKerningGroup = o;
rightKerningGroup = o;
unicode = 006F;
},
{
glyphname = r;
lastChange = "2016-12-20 00:27:53 +0000";
layers = (
{
layerId = "262880E7-CFE1-4BDA-902E-E24798F3240A";
paths = (
{
closed = 1;
nodes = (
"112 331 LINE",
"112 419 OFFCURVE",
"168 479 OFFCURVE",
"248 479 CURVE SMOOTH",
"274 479 OFFCURVE",
"288 474 OFFCURVE",
"303 466 CURVE",
"314 489 LINE",
"297 498 OFFCURVE",
"280 504 OFFCURVE",
"250 504 CURVE SMOOTH",
"157 504 OFFCURVE",
"97 438 OFFCURVE",
"97 331 CURVE"
);
},
{
closed = 1;
nodes = (
"112 0 LINE",
"112 500 LINE",
"90 500 LINE",
"90 0 LINE"
);
}
);
width = 314;
},
{
layerId = "4E2227F3-52E4-4048-A8EE-327B486EF0A4";
paths = (
{
closed = 1;
nodes = (
"215 273 LINE",
"215 294 OFFCURVE",
"227 318 OFFCURVE",
"246 327 CURVE SMOOTH",
"270 338 OFFCURVE",
"309 333 OFFCURVE",
"319 325 CURVE",
"348 510 LINE",
"339 519 OFFCURVE",
"323 527 OFFCURVE",
"298 527 CURVE SMOOTH",
"181 527 OFFCURVE",
"187 352 OFFCURVE",
"187 273 CURVE"
);
},
{
closed = 1;
nodes = (
"215 1 LINE",
"215 520 LINE",
"27 520 LINE",
"27 1 LINE"
);
}
);
width = 348;
},
{
layerId = "0BD25E4B-8A11-4E34-A837-2DA28743BADD";
paths = (
{
closed = 1;
nodes = (
"162 304 LINE",
"162 360 OFFCURVE",
"196 404 OFFCURVE",
"245 408 CURVE SMOOTH",
"269 413 OFFCURVE",
"295 408 OFFCURVE",
"307 400 CURVE",
"325 499 LINE",
"312 508 OFFCURVE",
"296 515 OFFCURVE",
"271 515 CURVE SMOOTH",
"174 515 OFFCURVE",
"122 412 OFFCURVE",
"122 304 CURVE"
);
},
{
closed = 1;
nodes = (
"162 0 LINE",
"162 510 LINE",
"63 510 LINE",
"63 0 LINE"
);
}
);
width = 325;
}
);
leftKerningGroup = n;
rightKerningGroup = r;
unicode = 0072;
},
{
glyphname = s;
lastChange = "2016-12-24 21:24:15 +0000";
layers = (
{
layerId = "262880E7-CFE1-4BDA-902E-E24798F3240A";
paths = (
{
closed = 1;
nodes = (
"308 -4 OFFCURVE",
"371 47 OFFCURVE",
"371 123 CURVE SMOOTH",
"371 212 OFFCURVE",
"287 238 OFFCURVE",
"209 264 CURVE SMOOTH",
"140 287 OFFCURVE",
"74 310 OFFCURVE",
"74 378 CURVE SMOOTH",
"74 441 OFFCURVE",
"127 483 OFFCURVE",
"209 483 CURVE SMOOTH",
"292 483 OFFCURVE",
"347 437 OFFCURVE",
"347 369 CURVE SMOOTH",
"347 344 LINE",
"369 344 LINE",
"369 369 LINE SMOOTH",
"369 450 OFFCURVE",
"306 504 OFFCURVE",
"210 504 CURVE SMOOTH",
"116 504 OFFCURVE",
"52 454 OFFCURVE",
"52 378 CURVE SMOOTH",
"52 294 OFFCURVE",
"128 268 OFFCURVE",
"204 243 CURVE SMOOTH",
"277 219 OFFCURVE",
"349 196 OFFCURVE",
"349 123 CURVE SMOOTH",
"349 59 OFFCURVE",
"294 17 OFFCURVE",
"212 17 CURVE SMOOTH",
"127 17 OFFCURVE",
"72 61 OFFCURVE",
"72 126 CURVE SMOOTH",
"72 157 LINE",
"50 157 LINE",
"50 126 LINE SMOOTH",
"50 48 OFFCURVE",
"115 -4 OFFCURVE",
"212 -4 CURVE SMOOTH"
);
}
);
width = 421;
},
{
layerId = "4E2227F3-52E4-4048-A8EE-327B486EF0A4";
paths = (
{
closed = 1;
nodes = (
"354 -8 OFFCURVE",
"430 46 OFFCURVE",
"430 137 CURVE SMOOTH",
"430 212 OFFCURVE",
"371 274 OFFCURVE",
"270 304 CURVE SMOOTH",
"226 317 OFFCURVE",
"200 333 OFFCURVE",
"200 344 CURVE SMOOTH",
"200 356 OFFCURVE",
"207 363 OFFCURVE",
"220 363 CURVE SMOOTH",
"234 363 OFFCURVE",
"243 353 OFFCURVE",
"243 337 CURVE SMOOTH",
"243 336 LINE",
"418 336 LINE",
"418 336 LINE SMOOTH",
"418 457 OFFCURVE",
"344 528 OFFCURVE",
"219 528 CURVE SMOOTH",
"94 528 OFFCURVE",
"20 469 OFFCURVE",
"20 368 CURVE SMOOTH",
"20 282 OFFCURVE",
"76 218 OFFCURVE",
"172 195 CURVE SMOOTH",
"212 185 OFFCURVE",
"235 170 OFFCURVE",
"235 155 CURVE SMOOTH",
"235 142 OFFCURVE",
"228 134 OFFCURVE",
"217 134 CURVE SMOOTH",
"203 134 OFFCURVE",
"194 145 OFFCURVE",
"194 165 CURVE SMOOTH",
"194 166 LINE",
"15 166 LINE",
"15 166 LINE",
"15 56 OFFCURVE",
"92 -8 OFFCURVE",
"224 -8 CURVE SMOOTH"
);
}
);
width = 445;
},
{
layerId = "0BD25E4B-8A11-4E34-A837-2DA28743BADD";
paths = (
{
closed = 1;
nodes = (
"324 -6 OFFCURVE",
"391 51 OFFCURVE",
"391 134 CURVE SMOOTH",
"391 217 OFFCURVE",
"322 257 OFFCURVE",
"234 288 CURVE SMOOTH",
"189 304 OFFCURVE",
"133 319 OFFCURVE",
"133 365 CURVE SMOOTH",
"133 399 OFFCURVE",
"164 425 OFFCURVE",
"210 425 CURVE SMOOTH",
"259 425 OFFCURVE",
"291 391 OFFCURVE",
"291 352 CURVE SMOOTH",
"291 344 LINE",
"384 344 LINE",
"384 354 LINE SMOOTH",
"384 453 OFFCURVE",
"319 515 OFFCURVE",
"209 515 CURVE SMOOTH",
"106 515 OFFCURVE",
"33 460 OFFCURVE",
"33 370 CURVE SMOOTH",
"33 279 OFFCURVE",
"108 243 OFFCURVE",
"186 216 CURVE SMOOTH",
"250 194 OFFCURVE",
"291 179 OFFCURVE",
"291 141 CURVE SMOOTH",
"291 108 OFFCURVE",
"261 81 OFFCURVE",
"213 81 CURVE SMOOTH",
"164 81 OFFCURVE",
"130 110 OFFCURVE",
"130 154 CURVE SMOOTH",
"130 161 LINE",
"30 161 LINE",
"30 144 LINE",
"30 51 OFFCURVE",
"104 -6 OFFCURVE",
"214 -6 CURVE SMOOTH"
);
}
);
width = 426;
}
);
leftKerningGroup = s;
rightKerningGroup = s;
unicode = 0073;
},
{
glyphname = t;
lastChange = "2016-12-25 00:58:40 +0000";
layers = (
{
layerId = "262880E7-CFE1-4BDA-902E-E24798F3240A";
paths = (
{
closed = 1;
nodes = (
"254 0 LINE",
"254 21 LINE",
"226 21 LINE SMOOTH",
"158 21 OFFCURVE",
"122 43 OFFCURVE",
"122 123 CURVE SMOOTH",
"122 610 LINE",
"100 610 LINE",
"100 124 LINE SMOOTH",
"100 23 OFFCURVE",
"152 0 OFFCURVE",
"226 0 CURVE SMOOTH"
);
},
{
closed = 1;
nodes = (
"253 479 LINE",
"253 500 LINE",
"28 500 LINE",
"28 479 LINE"
);
}
);
width = 284;
},
{
layerId = "4E2227F3-52E4-4048-A8EE-327B486EF0A4";
paths = (
{
closed = 1;
nodes = (
"276 7 LINE",
"276 177 LINE",
"259 177 LINE",
"241 176 OFFCURVE",
"228 181 OFFCURVE",
"228 207 CURVE",
"228 640 LINE",
"48 640 LINE",
"48 116 LINE",
"48 17 OFFCURVE",
"115 -11 OFFCURVE",
"213 0 CURVE SMOOTH"
);
},
{
closed = 1;
nodes = (
"291 390 LINE",
"291 520 LINE",
"0 520 LINE",
"0 390 LINE"
);
}
);
width = 297;
},
{
layerId = "0BD25E4B-8A11-4E34-A837-2DA28743BADD";
paths = (
{
closed = 1;
nodes = (
"308 0 LINE",
"306 90 LINE",
"256 90 LINE SMOOTH",
"201 90 OFFCURVE",
"180 103 OFFCURVE",
"180 182 CURVE SMOOTH",
"180 623 LINE",
"80 623 LINE",
"80 156 LINE SMOOTH",
"80 31 OFFCURVE",
"136 0 OFFCURVE",
"246 0 CURVE SMOOTH"
);
},
{
closed = 1;
nodes = (
"311 424 LINE",
"311 509 LINE",
"10 509 LINE",
"10 424 LINE"
);
}
);
width = 325;
},
{
associatedMasterId = "0BD25E4B-8A11-4E34-A837-2DA28743BADD";
layerId = "E7876029-200A-4733-ACA1-1CC53838F6E6";
name = "Dec 24 16, 17:55";
paths = (
{
closed = 1;
nodes = (
"260 0 LINE",
"260 90 LINE",
"230 90 LINE SMOOTH",
"191 90 OFFCURVE",
"166 105 OFFCURVE",
"166 152 CURVE SMOOTH",
"166 624 LINE",
"70 624 LINE",
"70 125 LINE SMOOTH",
"70 50 OFFCURVE",
"116 -1 OFFCURVE",
"210 0 CURVE SMOOTH"
);
},
{
closed = 1;
nodes = (
"266 437 LINE",
"266 510 LINE",
"10 510 LINE",
"10 437 LINE"
);
}
);
width = 280;
visible = 1;
}
);
leftKerningGroup = t;
rightKerningGroup = t;
unicode = 0074;
},
{
glyphname = v;
lastChange = "2016-12-20 00:29:13 +0000";
layers = (
{
layerId = "262880E7-CFE1-4BDA-902E-E24798F3240A";
paths = (
{
closed = 1;
nodes = (
"219 0 LINE",
"385 500 LINE",
"360 500 LINE",
"208 33 LINE",
"55 500 LINE",
"30 500 LINE",
"197 0 LINE"
);
}
);
width = 425;
},
{
layerId = "4E2227F3-52E4-4048-A8EE-327B486EF0A4";
paths = (
{
closed = 1;
nodes = (
"342 -2 LINE",
"467 518 LINE",
"263 520 LINE",
"238 256 LINE",
"213 520 LINE",
"9 520 LINE",
"134 0 LINE"
);
}
);
width = 479;
},
{
layerId = "0BD25E4B-8A11-4E34-A837-2DA28743BADD";
paths = (
{
closed = 1;
nodes = (
"267 -1 LINE",
"417 508 LINE",
"308 509 LINE",
"219 137 LINE",
"129 509 LINE",
"21 509 LINE",
"171 0 LINE"
);
}
);
width = 445;
}
);
leftKerningGroup = v;
rightKerningGroup = v;
unicode = 0076;
},
{
glyphname = w;
lastChange = "2016-12-20 00:27:53 +0000";
layers = (
{
layerId = "262880E7-CFE1-4BDA-902E-E24798F3240A";
paths = (
{
closed = 1;
nodes = (
"193 0 LINE",
"320 461 LINE",
"448 0 LINE",
"470 0 LINE",
"610 500 LINE",
"588 500 LINE",
"459 27 LINE",
"331 500 LINE",
"310 500 LINE",
"182 27 LINE",
"55 500 LINE",
"30 500 LINE",
"171 0 LINE"
);
}
);
width = 650;
},
{
layerId = "4E2227F3-52E4-4048-A8EE-327B486EF0A4";
paths = (
{
closed = 1;
nodes = (
"294 -2 LINE",
"319 211 LINE",
"350 0 LINE",
"534 -2 LINE",
"646 518 LINE",
"468 520 LINE",
"431 256 LINE",
"408 520 LINE",
"246 520 LINE",
"225 256 LINE",
"190 520 LINE",
"9 520 LINE",
"120 0 LINE"
);
}
);
width = 658;
},
{
layerId = "0BD25E4B-8A11-4E34-A837-2DA28743BADD";
paths = (
{
closed = 1;
nodes = (
"245 -1 LINE",
"315 361 LINE",
"391 0 LINE",
"486 -1 LINE",
"611 508 LINE",
"507 509 LINE",
"439 150 LINE",
"359 509 LINE",
"264 509 LINE",
"195 150 LINE",
"124 509 LINE",
"21 509 LINE",
"145 0 LINE"
);
}
);
width = 639;
}
);
leftKerningGroup = v;
rightKerningGroup = v;
unicode = 0077;
},
{
glyphname = x;
lastChange = "2016-12-20 00:27:53 +0000";
layers = (
{
layerId = "262880E7-CFE1-4BDA-902E-E24798F3240A";
paths = (
{
closed = 1;
nodes = (
"55 0 LINE",
"212 233 LINE",
"368 0 LINE",
"393 0 LINE",
"223 250 LINE",
"393 500 LINE",
"368 500 LINE",
"212 267 LINE",
"55 500 LINE",
"30 500 LINE",
"201 250 LINE",
"30 0 LINE"
);
}
);
width = 433;
},
{
layerId = "4E2227F3-52E4-4048-A8EE-327B486EF0A4";
paths = (
{
closed = 1;
nodes = (
"203 0 LINE",
"234 105 LINE",
"265 0 LINE",
"459 0 LINE",
"329 260 LINE",
"459 520 LINE",
"265 520 LINE",
"234 420 LINE",
"203 520 LINE",
"9 520 LINE",
"139 260 LINE",
"9 0 LINE"
);
}
);
width = 461;
},
{
layerId = "0BD25E4B-8A11-4E34-A837-2DA28743BADD";
paths = (
{
closed = 1;
nodes = (
"125 0 LINE",
"223 173 LINE",
"321 0 LINE",
"425 0 LINE",
"273 255 LINE",
"425 509 LINE",
"321 509 LINE",
"223 338 LINE",
"125 509 LINE",
"21 509 LINE",
"173 255 LINE",
"21 0 LINE"
);
}
);
width = 453;
}
);
leftKerningGroup = x;
unicode = 0078;
},
{
glyphname = y;
lastChange = "2016-12-24 21:15:25 +0000";
layers = (
{
layerId = "262880E7-CFE1-4BDA-902E-E24798F3240A";
paths = (
{
closed = 1;
nodes = (
"71 -200 LINE",
"135 -199 OFFCURVE",
"160 -185 OFFCURVE",
"201 -62 CURVE SMOOTH",
"389 500 LINE",
"367 500 LINE",
"213 27 LINE",
"52 500 LINE",
"30 500 LINE",
"202 0 LINE",
"156 -147 OFFCURVE",
"142 -180 OFFCURVE",
"71 -181 CURVE",
"57 -181 LINE",
"57 -200 LINE"
);
}
);
width = 429;
},
{
layerId = "4E2227F3-52E4-4048-A8EE-327B486EF0A4";
paths = (
{
closed = 1;
nodes = (
"43 -199 LINE",
"250 -199 OFFCURVE",
"287 -140 OFFCURVE",
"326 -2 CURVE",
"456 518 LINE",
"254 520 LINE",
"233 252 LINE",
"210 520 LINE",
"9 520 LINE",
"138 0 LINE",
"146 -40 OFFCURVE",
"108 -45 OFFCURVE",
"40 -45 CURVE",
"31 -45 LINE",
"31 -199 LINE"
);
}
);
width = 468;
},
{
layerId = "0BD25E4B-8A11-4E34-A837-2DA28743BADD";
paths = (
{
closed = 1;
nodes = (
"57 -200 LINE",
"186 -199 OFFCURVE",
"216 -164 OFFCURVE",
"255 -34 CURVE SMOOTH",
"411 509 LINE",
"303 510 LINE",
"217 132 LINE",
"126 510 LINE",
"21 510 LINE",
"167 0 LINE",
"148 -97 OFFCURVE",
"123 -117 OFFCURVE",
"55 -118 CURVE",
"27 -118 LINE",
"27 -200 LINE"
);
}
);
width = 439;
}
);
leftKerningGroup = v;
rightKerningGroup = v;
unicode = 0079;
},
{
glyphname = z;
lastChange = "2016-12-24 21:25:07 +0000";
layers = (
{
layerId = "262880E7-CFE1-4BDA-902E-E24798F3240A";
paths = (
{
closed = 1;
nodes = (
"375 0 LINE",
"375 21 LINE",
"64 21 LINE",
"379 479 LINE",
"379 500 LINE",
"44 500 LINE",
"44 479 LINE",
"355 479 LINE",
"40 21 LINE",
"40 0 LINE"
);
}
);
width = 429;
},
{
layerId = "4E2227F3-52E4-4048-A8EE-327B486EF0A4";
paths = (
{
closed = 1;
nodes = (
"377 0 LINE",
"377 170 LINE",
"226 170 LINE",
"368 350 LINE",
"368 520 LINE",
"19 520 LINE",
"19 350 LINE",
"144 350 LINE",
"12 170 LINE",
"12 0 LINE"
);
}
);
width = 392;
},
{
layerId = "0BD25E4B-8A11-4E34-A837-2DA28743BADD";
paths = (
{
closed = 1;
nodes = (
"377 0 LINE",
"377 90 LINE",
"141 90 LINE",
"375 419 LINE",
"375 509 LINE",
"33 509 LINE",
"33 419 LINE",
"258 419 LINE",
"28 90 LINE",
"28 0 LINE"
);
}
);
width = 412;
}
);
leftKerningGroup = z;
unicode = 007A;
},
{
glyphname = a.alt;
lastChange = "2016-12-20 00:26:26 +0000";
layers = (
{
components = (
{
name = b.bowl;
transform = "{-1, 0, 0, 1, 403, 0}";
}
);
layerId = "262880E7-CFE1-4BDA-902E-E24798F3240A";
paths = (
{
closed = 1;
nodes = (
"406 0 LINE",
"406 500 LINE",
"384 500 LINE",
"384 0 LINE"
);
}
);
width = 455;
},
{
components = (
{
name = b.bowl;
transform = "{-1, 0, 0, 1, 281, 0}";
}
);
layerId = "4E2227F3-52E4-4048-A8EE-327B486EF0A4";
paths = (
{
closed = 1;
nodes = (
"433 0 LINE",
"433 520 LINE",
"245 520 LINE",
"245 0 LINE"
);
}
);
width = 449;
},
{
components = (
{
name = b.bowl;
transform = "{-1, 0, 0, 1, 346, 0}";
}
);
layerId = "0BD25E4B-8A11-4E34-A837-2DA28743BADD";
paths = (
{
closed = 1;
nodes = (
"419 0 LINE",
"419 509 LINE",
"319 509 LINE",
"319 0 LINE"
);
}
);
width = 452;
}
);
leftKerningGroup = a;
rightKerningGroup = a;
},
{
export = 0;
glyphname = b.bowl;
lastChange = "2016-12-24 21:19:06 +0000";
layers = (
{
layerId = "262880E7-CFE1-4BDA-902E-E24798F3240A";
paths = (
{
closed = 1;
nodes = (
"272 -8 OFFCURVE",
"335 55 OFFCURVE",
"335 158 CURVE SMOOTH",
"335 342 LINE SMOOTH",
"335 445 OFFCURVE",
"274 508 OFFCURVE",
"169 508 CURVE SMOOTH",
"65 508 OFFCURVE",
"0 441 OFFCURVE",
"0 342 CURVE SMOOTH",
"0 158 LINE SMOOTH",
"0 53 OFFCURVE",
"70 -8 OFFCURVE",
"167 -8 CURVE SMOOTH"
);
},
{
closed = 1;
nodes = (
"79 13 OFFCURVE",
"19 67 OFFCURVE",
"19 155 CURVE SMOOTH",
"19 345 LINE SMOOTH",
"19 433 OFFCURVE",
"79 487 OFFCURVE",
"167 487 CURVE SMOOTH",
"259 487 OFFCURVE",
"313 433 OFFCURVE",
"313 345 CURVE SMOOTH",
"313 155 LINE SMOOTH",
"313 67 OFFCURVE",
"259 13 OFFCURVE",
"167 13 CURVE SMOOTH"
);
}
);
width = 335;
},
{
layerId = "4E2227F3-52E4-4048-A8EE-327B486EF0A4";
paths = (
{
closed = 1;
nodes = (
"227 -8 OFFCURVE",
"267 66 OFFCURVE",
"267 177 CURVE SMOOTH",
"267 343 LINE SMOOTH",
"267 454 OFFCURVE",
"227 528 OFFCURVE",
"126 528 CURVE SMOOTH",
"91 528 OFFCURVE",
"0 513 OFFCURVE",
"0 323 CURVE SMOOTH",
"0 197 LINE",
"-4 7 OFFCURVE",
"91 -8 OFFCURVE",
"126 -8 CURVE SMOOTH"
);
},
{
closed = 1;
nodes = (
"42 164 OFFCURVE",
"34 175 OFFCURVE",
"34 197 CURVE SMOOTH",
"34 323 LINE SMOOTH",
"34 345 OFFCURVE",
"42 356 OFFCURVE",
"56 356 CURVE SMOOTH",
"71 356 OFFCURVE",
"79 345 OFFCURVE",
"79 323 CURVE SMOOTH",
"79 197 LINE SMOOTH",
"79 175 OFFCURVE",
"71 164 OFFCURVE",
"56 164 CURVE SMOOTH"
);
}
);
width = 267;
},
{
layerId = "0BD25E4B-8A11-4E34-A837-2DA28743BADD";
paths = (
{
closed = 1;
nodes = (
"236 -8 OFFCURVE",
"304 58 OFFCURVE",
"304 167 CURVE SMOOTH",
"304 343 LINE SMOOTH",
"304 451 OFFCURVE",
"236 517 OFFCURVE",
"142 517 CURVE SMOOTH",
"39 517 OFFCURVE",
"-20 435 OFFCURVE",
"-20 310 CURVE SMOOTH",
"-20 199 LINE SMOOTH",
"-20 73 OFFCURVE",
"39 -8 OFFCURVE",
"141 -8 CURVE SMOOTH"
);
},
{
closed = 1;
nodes = (
"61 82 OFFCURVE",
"26 117 OFFCURVE",
"26 174 CURVE SMOOTH",
"26 336 LINE SMOOTH",
"26 393 OFFCURVE",
"61 427 OFFCURVE",
"116 427 CURVE SMOOTH",
"170 427 OFFCURVE",
"204 393 OFFCURVE",
"204 336 CURVE SMOOTH",
"204 174 LINE SMOOTH",
"204 116 OFFCURVE",
"170 82 OFFCURVE",
"116 82 CURVE SMOOTH"
);
}
);
width = 304;
}
);
},
{
export = 0;
glyphname = n.curve;
lastChange = "2016-12-24 21:20:20 +0000";
layers = (
{
layerId = "262880E7-CFE1-4BDA-902E-E24798F3240A";
paths = (
{
closed = 1;
nodes = (
"324 0 LINE",
"324 347 LINE SMOOTH",
"324 446 OFFCURVE",
"259 507 OFFCURVE",
"166 507 CURVE SMOOTH",
"66 507 OFFCURVE",
"0 448 OFFCURVE",
"0 346 CURVE",
"18 346 LINE",
"18 433 OFFCURVE",
"75 486 OFFCURVE",
"163 486 CURVE SMOOTH",
"245 486 OFFCURVE",
"302 432 OFFCURVE",
"302 344 CURVE SMOOTH",
"302 0 LINE"
);
}
);
width = 324;
},
{
layerId = "4E2227F3-52E4-4048-A8EE-327B486EF0A4";
paths = (
{
closed = 1;
nodes = (
"268 0 LINE",
"268 348 LINE SMOOTH",
"268 459 OFFCURVE",
"227 528 OFFCURVE",
"126 528 CURVE SMOOTH",
"89 528 OFFCURVE",
"-1 515 OFFCURVE",
"0 335 CURVE",
"36 335 LINE",
"36 356 OFFCURVE",
"44 367 OFFCURVE",
"59 367 CURVE SMOOTH",
"73 367 OFFCURVE",
"80 356 OFFCURVE",
"80 335 CURVE SMOOTH",
"80 0 LINE"
);
}
);
width = 268;
},
{
layerId = "0BD25E4B-8A11-4E34-A837-2DA28743BADD";
paths = (
{
closed = 1;
nodes = (
"298 0 LINE",
"298 348 LINE SMOOTH",
"298 452 OFFCURVE",
"226 517 OFFCURVE",
"138 517 CURVE SMOOTH",
"40 517 OFFCURVE",
"-6 463 OFFCURVE",
"-6 308 CURVE",
"26 337 LINE",
"26 393 OFFCURVE",
"61 427 OFFCURVE",
"113 427 CURVE SMOOTH",
"165 427 OFFCURVE",
"199 393 OFFCURVE",
"199 336 CURVE SMOOTH",
"199 0 LINE"
);
}
);
width = 298;
}
);
},
{
glyphname = zero;
lastChange = "2016-12-20 00:27:52 +0000";
layers = (
{
layerId = "262880E7-CFE1-4BDA-902E-E24798F3240A";
paths = (
{
closed = 1;
nodes = (
"346 -9 OFFCURVE",
"415 56 OFFCURVE",
"415 154 CURVE SMOOTH",
"415 546 LINE SMOOTH",
"415 644 OFFCURVE",
"346 709 OFFCURVE",
"248 709 CURVE SMOOTH",
"150 709 OFFCURVE",
"80 644 OFFCURVE",
"80 546 CURVE SMOOTH",
"80 154 LINE SMOOTH",
"80 56 OFFCURVE",
"150 -9 OFFCURVE",
"248 -9 CURVE SMOOTH"
);
},
{
closed = 1;
nodes = (
"163 12 OFFCURVE",
"102 68 OFFCURVE",
"102 152 CURVE SMOOTH",
"102 548 LINE SMOOTH",
"102 632 OFFCURVE",
"163 688 OFFCURVE",
"248 688 CURVE SMOOTH",
"333 688 OFFCURVE",
"393 632 OFFCURVE",
"393 548 CURVE SMOOTH",
"393 152 LINE SMOOTH",
"393 68 OFFCURVE",
"333 12 OFFCURVE",
"248 12 CURVE SMOOTH"
);
}
);
width = 495;
},
{
layerId = "4E2227F3-52E4-4048-A8EE-327B486EF0A4";
paths = (
{
closed = 1;
nodes = (
"371 -8 OFFCURVE",
"458 78 OFFCURVE",
"458 208 CURVE SMOOTH",
"458 492 LINE SMOOTH",
"458 622 OFFCURVE",
"371 708 OFFCURVE",
"241 708 CURVE SMOOTH",
"111 708 OFFCURVE",
"24 622 OFFCURVE",
"24 492 CURVE SMOOTH",
"24 208 LINE SMOOTH",
"24 78 OFFCURVE",
"111 -8 OFFCURVE",
"241 -8 CURVE SMOOTH"
);
},
{
closed = 1;
nodes = (
"224 162 OFFCURVE",
"212 180 OFFCURVE",
"212 208 CURVE SMOOTH",
"212 492 LINE SMOOTH",
"212 520 OFFCURVE",
"224 538 OFFCURVE",
"241 538 CURVE SMOOTH",
"258 538 OFFCURVE",
"270 520 OFFCURVE",
"270 492 CURVE SMOOTH",
"270 208 LINE SMOOTH",
"270 180 OFFCURVE",
"258 162 OFFCURVE",
"241 162 CURVE SMOOTH"
);
}
);
width = 482;
},
{
layerId = "0BD25E4B-8A11-4E34-A837-2DA28743BADD";
paths = (
{
closed = 1;
nodes = (
"360 -9 OFFCURVE",
"437 66 OFFCURVE",
"437 179 CURVE SMOOTH",
"437 521 LINE SMOOTH",
"437 634 OFFCURVE",
"360 709 OFFCURVE",
"247 709 CURVE SMOOTH",
"134 709 OFFCURVE",
"56 634 OFFCURVE",
"56 521 CURVE SMOOTH",
"56 179 LINE SMOOTH",
"56 66 OFFCURVE",
"134 -9 OFFCURVE",
"247 -9 CURVE SMOOTH"
);
},
{
closed = 1;
nodes = (
"193 82 OFFCURVE",
"155 120 OFFCURVE",
"155 178 CURVE SMOOTH",
"155 522 LINE SMOOTH",
"155 580 OFFCURVE",
"193 618 OFFCURVE",
"247 618 CURVE SMOOTH",
"300 618 OFFCURVE",
"338 580 OFFCURVE",
"338 522 CURVE SMOOTH",
"338 178 LINE SMOOTH",
"338 120 OFFCURVE",
"300 82 OFFCURVE",
"247 82 CURVE SMOOTH"
);
}
);
width = 493;
}
);
unicode = 0030;
},
{
glyphname = one;
lastChange = "2016-12-20 00:27:52 +0000";
layers = (
{
layerId = "262880E7-CFE1-4BDA-902E-E24798F3240A";
paths = (
{
closed = 1;
nodes = (
"201 0 LINE",
"201 700 LINE",
"179 700 LINE",
"179 0 LINE"
);
},
{
closed = 1;
nodes = (
"90 637 LINE",
"179 669 LINE",
"179 700 LINE",
"90 658 LINE"
);
}
);
width = 301;
},
{
layerId = "4E2227F3-52E4-4048-A8EE-327B486EF0A4";
paths = (
{
closed = 1;
nodes = (
"262 0 LINE",
"262 700 LINE",
"74 700 LINE",
"74 0 LINE"
);
},
{
closed = 1;
nodes = (
"27 529 LINE",
"74 529 LINE",
"74 700 LINE",
"27 673 LINE"
);
}
);
width = 292;
},
{
layerId = "0BD25E4B-8A11-4E34-A837-2DA28743BADD";
paths = (
{
closed = 1;
nodes = (
"231 0 LINE",
"231 700 LINE",
"132 700 LINE",
"132 0 LINE"
);
},
{
closed = 1;
nodes = (
"63 587 LINE",
"132 604 LINE",
"132 700 LINE",
"63 665 LINE"
);
}
);
width = 301;
}
);
unicode = 0031;
},
{
glyphname = two;
lastChange = "2016-12-20 00:29:29 +0000";
layers = (
{
layerId = "262880E7-CFE1-4BDA-902E-E24798F3240A";
paths = (
{
closed = 1;
nodes = (
"411 0 LINE",
"411 21 LINE",
"96 21 LINE",
"310 323 LINE SMOOTH",
"372 410 OFFCURVE",
"403 485 OFFCURVE",
"403 544 CURVE SMOOTH",
"403 642 OFFCURVE",
"335 708 OFFCURVE",
"234 708 CURVE SMOOTH",
"136 708 OFFCURVE",
"70 642 OFFCURVE",
"70 544 CURVE SMOOTH",
"70 500 LINE",
"93 500 LINE",
"93 544 LINE",
"92 630 OFFCURVE",
"148 687 OFFCURVE",
"234 687 CURVE SMOOTH",
"322 687 OFFCURVE",
"381 630 OFFCURVE",
"381 544 CURVE SMOOTH",
"381 490 OFFCURVE",
"351 420 OFFCURVE",
"291 335 CURVE SMOOTH",
"70 21 LINE",
"70 0 LINE"
);
}
);
width = 461;
},
{
layerId = "4E2227F3-52E4-4048-A8EE-327B486EF0A4";
paths = (
{
closed = 1;
nodes = (
"460 0 LINE",
"460 170 LINE",
"282 170 LINE",
"400 311 LINE",
"449 382 OFFCURVE",
"454 425 OFFCURVE",
"454 520 CURVE SMOOTH",
"454 639 OFFCURVE",
"363 708 OFFCURVE",
"237 708 CURVE SMOOTH",
"115 708 OFFCURVE",
"28 640 OFFCURVE",
"21 520 CURVE",
"21 455 LINE",
"211 455 LINE",
"211 503 LINE",
"211 524 OFFCURVE",
"222 538 OFFCURVE",
"238 538 CURVE SMOOTH",
"253 538 OFFCURVE",
"264 524 OFFCURVE",
"264 503 CURVE SMOOTH",
"264 457 OFFCURVE",
"251 423 OFFCURVE",
"200 361 CURVE",
"25 170 LINE",
"25 0 LINE"
);
}
);
width = 475;
},
{
layerId = "0BD25E4B-8A11-4E34-A837-2DA28743BADD";
paths = (
{
closed = 1;
nodes = (
"442 0 LINE",
"442 91 LINE",
"184 91 LINE",
"357 318 LINE",
"415 397 OFFCURVE",
"434 457 OFFCURVE",
"434 533 CURVE SMOOTH",
"434 646 OFFCURVE",
"361 708 OFFCURVE",
"240 708 CURVE SMOOTH",
"128 708 OFFCURVE",
"52 638 OFFCURVE",
"49 525 CURVE",
"49 479 LINE",
"150 479 LINE",
"150 512 LINE",
"149 573 OFFCURVE",
"185 614 OFFCURVE",
"240 614 CURVE SMOOTH",
"302 614 OFFCURVE",
"334 581 OFFCURVE",
"334 521 CURVE SMOOTH",
"334 471 OFFCURVE",
"312 421 OFFCURVE",
"254 347 CURVE",
"51 91 LINE",
"51 0 LINE"
);
}
);
width = 477;
}
);
unicode = 0032;
},
{
glyphname = three;
lastChange = "2016-12-24 21:47:43 +0000";
layers = (
{
layerId = "262880E7-CFE1-4BDA-902E-E24798F3240A";
paths = (
{
closed = 1;
nodes = (
"339 -8 OFFCURVE",
"405 58 OFFCURVE",
"405 158 CURVE SMOOTH",
"405 262 LINE SMOOTH",
"405 364 OFFCURVE",
"345 433 OFFCURVE",
"226 426 CURVE",
"227 420 LINE",
"408 679 LINE",
"408 700 LINE",
"75 700 LINE",
"75 679 LINE",
"382 679 LINE",
"196 416 LINE",
"207 404 LINE",
"217 406 OFFCURVE",
"227 407 OFFCURVE",
"238 407 CURVE SMOOTH",
"325 407 OFFCURVE",
"383 350 OFFCURVE",
"383 265 CURVE SMOOTH",
"383 155 LINE SMOOTH",
"383 70 OFFCURVE",
"325 13 OFFCURVE",
"238 13 CURVE SMOOTH",
"151 13 OFFCURVE",
"92 70 OFFCURVE",
"92 155 CURVE SMOOTH",
"92 201 LINE",
"70 201 LINE",
"70 158 LINE SMOOTH",
"70 58 OFFCURVE",
"137 -8 OFFCURVE",
"238 -8 CURVE SMOOTH"
);
}
);
width = 488;
},
{
layerId = "4E2227F3-52E4-4048-A8EE-327B486EF0A4";
paths = (
{
closed = 1;
nodes = (
"360 -7 OFFCURVE",
"445 59 OFFCURVE",
"445 172 CURVE SMOOTH",
"445 276 LINE SMOOTH",
"445 368 OFFCURVE",
"375 440 OFFCURVE",
"293 410 CURVE",
"293 379 LINE",
"445 530 LINE",
"445 700 LINE",
"54 700 LINE",
"54 530 LINE",
"219 530 LINE",
"91 417 LINE",
"192 312 LINE",
"208 333 OFFCURVE",
"217 340 OFFCURVE",
"233 340 CURVE SMOOTH",
"247 340 OFFCURVE",
"257 327 OFFCURVE",
"257 308 CURVE SMOOTH",
"257 185 LINE SMOOTH",
"257 166 OFFCURVE",
"247 153 OFFCURVE",
"233 153 CURVE SMOOTH",
"219 153 OFFCURVE",
"209 166 OFFCURVE",
"209 185 CURVE SMOOTH",
"209 232 LINE",
"21 232 LINE",
"21 172 LINE SMOOTH",
"21 59 OFFCURVE",
"106 -7 OFFCURVE",
"233 -7 CURVE SMOOTH"
);
}
);
width = 469;
},
{
layerId = "0BD25E4B-8A11-4E34-A837-2DA28743BADD";
paths = (
{
closed = 1;
nodes = (
"351 -8 OFFCURVE",
"426 58 OFFCURVE",
"426 165 CURVE SMOOTH",
"426 269 LINE SMOOTH",
"426 386 OFFCURVE",
"361 462 OFFCURVE",
"259 439 CURVE",
"260 401 LINE",
"427 609 LINE",
"427 700 LINE",
"67 700 LINE",
"67 609 LINE",
"308 609 LINE",
"149 416 LINE",
"202 361 LINE",
"215 372 OFFCURVE",
"224 376 OFFCURVE",
"238 376 CURVE SMOOTH",
"291 376 OFFCURVE",
"326 339 OFFCURVE",
"326 285 CURVE SMOOTH",
"326 169 LINE SMOOTH",
"326 115 OFFCURVE",
"291 78 OFFCURVE",
"238 78 CURVE SMOOTH",
"185 78 OFFCURVE",
"149 115 OFFCURVE",
"149 169 CURVE SMOOTH",
"149 215 LINE",
"49 215 LINE",
"49 165 LINE SMOOTH",
"49 58 OFFCURVE",
"125 -8 OFFCURVE",
"238 -8 CURVE SMOOTH"
);
}
);
width = 483;
}
);
unicode = 0033;
},
{
glyphname = four;
lastChange = "2016-12-20 00:27:52 +0000";
layers = (
{
layerId = "262880E7-CFE1-4BDA-902E-E24798F3240A";
paths = (
{
closed = 1;
nodes = (
"328 222 LINE",
"328 -7 LINE",
"350 -7 LINE",
"350 415 LINE",
"328 415 LINE"
);
},
{
closed = 1;
nodes = (
"63 222 LINE",
"277 700 LINE",
"253 700 LINE",
"40 222 LINE",
"40 202 LINE",
"403 202 LINE",
"403 222 LINE"
);
}
);
width = 443;
},
{
layerId = "4E2227F3-52E4-4048-A8EE-327B486EF0A4";
paths = (
{
closed = 1;
nodes = (
"266 337 LINE",
"266 0 LINE",
"455 0 LINE",
"455 480 LINE",
"297 480 LINE"
);
},
{
closed = 1;
nodes = (
"230 337 LINE",
"337 700 LINE",
"140 700 LINE",
"12 302 LINE",
"12 167 LINE",
"506 167 LINE",
"506 337 LINE"
);
}
);
width = 518;
},
{
layerId = "0BD25E4B-8A11-4E34-A837-2DA28743BADD";
paths = (
{
closed = 1;
nodes = (
"300 276 LINE",
"300 -4 LINE",
"400 -4 LINE",
"400 445 LINE",
"315 445 LINE"
);
},
{
closed = 1;
nodes = (
"142 276 LINE",
"306 700 LINE",
"201 700 LINE",
"28 259 LINE",
"28 186 LINE",
"452 186 LINE",
"452 276 LINE"
);
}
);
width = 480;
}
);
unicode = 0034;
},
{
glyphname = five;
lastChange = "2016-12-24 21:49:00 +0000";
layers = (
{
layerId = "262880E7-CFE1-4BDA-902E-E24798F3240A";
paths = (
{
closed = 1;
nodes = (
"318 -9 OFFCURVE",
"382 57 OFFCURVE",
"382 157 CURVE SMOOTH",
"382 262 LINE SMOOTH",
"382 362 OFFCURVE",
"318 428 OFFCURVE",
"222 428 CURVE SMOOTH",
"138 428 OFFCURVE",
"77 381 OFFCURVE",
"77 311 CURVE",
"77 307 LINE",
"96 307 LINE",
"96 311 LINE SMOOTH",
"96 369 OFFCURVE",
"151 407 OFFCURVE",
"222 407 CURVE SMOOTH",
"305 407 OFFCURVE",
"360 350 OFFCURVE",
"360 265 CURVE SMOOTH",
"360 154 LINE SMOOTH",
"360 69 OFFCURVE",
"305 12 OFFCURVE",
"222 12 CURVE SMOOTH",
"140 12 OFFCURVE",
"85 69 OFFCURVE",
"85 154 CURVE SMOOTH",
"85 158 LINE",
"63 158 LINE",
"63 157 LINE SMOOTH",
"63 57 OFFCURVE",
"127 -9 OFFCURVE",
"222 -9 CURVE SMOOTH"
);
},
{
closed = 1;
nodes = (
"96 310 LINE",
"98 679 LINE",
"379 679 LINE",
"379 700 LINE",
"76 700 LINE",
"77 310 LINE"
);
}
);
width = 429;
},
{
layerId = "4E2227F3-52E4-4048-A8EE-327B486EF0A4";
paths = (
{
closed = 1;
nodes = (
"349 -8 OFFCURVE",
"434 58 OFFCURVE",
"434 171 CURVE SMOOTH",
"434 260 LINE SMOOTH",
"434 374 OFFCURVE",
"375 444 OFFCURVE",
"280 444 CURVE SMOOTH",
"170 444 OFFCURVE",
"139 344 OFFCURVE",
"139 260 CURVE",
"139 256 LINE",
"196 256 LINE",
"196 257 LINE SMOOTH",
"196 272 OFFCURVE",
"206 282 OFFCURVE",
"221 282 CURVE SMOOTH",
"236 282 OFFCURVE",
"246 269 OFFCURVE",
"246 250 CURVE SMOOTH",
"246 184 LINE SMOOTH",
"246 165 OFFCURVE",
"236 152 OFFCURVE",
"221 152 CURVE SMOOTH",
"207 152 OFFCURVE",
"197 165 OFFCURVE",
"197 184 CURVE SMOOTH",
"197 185 LINE",
"9 185 LINE",
"9 171 LINE SMOOTH",
"9 58 OFFCURVE",
"92 -8 OFFCURVE",
"221 -8 CURVE SMOOTH"
);
},
{
closed = 1;
nodes = (
"196 254 LINE",
"196 530 LINE",
"432 530 LINE",
"432 700 LINE",
"8 700 LINE",
"8 254 LINE"
);
}
);
width = 443;
},
{
layerId = "0BD25E4B-8A11-4E34-A837-2DA28743BADD";
paths = (
{
closed = 1;
nodes = (
"332 -9 OFFCURVE",
"406 57 OFFCURVE",
"406 164 CURVE SMOOTH",
"406 261 LINE SMOOTH",
"406 368 OFFCURVE",
"345 435 OFFCURVE",
"249 435 CURVE SMOOTH",
"153 435 OFFCURVE",
"106 384 OFFCURVE",
"106 307 CURVE",
"106 283 LINE",
"143 283 LINE",
"143 286 LINE SMOOTH",
"143 324 OFFCURVE",
"177 349 OFFCURVE",
"222 349 CURVE SMOOTH",
"273 349 OFFCURVE",
"307 312 OFFCURVE",
"307 258 CURVE SMOOTH",
"307 172 LINE SMOOTH",
"307 118 OFFCURVE",
"273 81 OFFCURVE",
"222 81 CURVE SMOOTH",
"171 81 OFFCURVE",
"137 118 OFFCURVE",
"137 172 CURVE SMOOTH",
"137 172 LINE",
"38 172 LINE",
"38 168 LINE SMOOTH",
"38 61 OFFCURVE",
"111 -9 OFFCURVE",
"222 -9 CURVE SMOOTH"
);
},
{
closed = 1;
nodes = (
"143 284 LINE",
"144 609 LINE",
"404 609 LINE",
"404 700 LINE",
"44 700 LINE",
"45 284 LINE"
);
}
);
width = 436;
}
);
unicode = 0035;
},
{
glyphname = six;
lastChange = "2016-12-20 00:27:52 +0000";
layers = (
{
layerId = "262880E7-CFE1-4BDA-902E-E24798F3240A";
paths = (
{
closed = 1;
nodes = (
"361 -8 OFFCURVE",
"427 58 OFFCURVE",
"427 158 CURVE SMOOTH",
"427 262 LINE SMOOTH",
"427 362 OFFCURVE",
"361 428 OFFCURVE",
"259 428 CURVE SMOOTH",
"189 428 OFFCURVE",
"135 395 OFFCURVE",
"109 340 CURVE",
"112 340 LINE",
"112 545 LINE SMOOTH",
"112 630 OFFCURVE",
"171 687 OFFCURVE",
"259 687 CURVE SMOOTH",
"347 687 OFFCURVE",
"405 630 OFFCURVE",
"405 545 CURVE SMOOTH",
"405 500 LINE",
"427 500 LINE",
"427 542 LINE SMOOTH",
"427 642 OFFCURVE",
"361 708 OFFCURVE",
"259 708 CURVE SMOOTH",
"157 708 OFFCURVE",
"90 642 OFFCURVE",
"90 542 CURVE SMOOTH",
"90 158 LINE SMOOTH",
"90 58 OFFCURVE",
"157 -8 OFFCURVE",
"259 -8 CURVE SMOOTH"
);
},
{
closed = 1;
nodes = (
"171 13 OFFCURVE",
"112 70 OFFCURVE",
"112 155 CURVE SMOOTH",
"112 265 LINE SMOOTH",
"112 350 OFFCURVE",
"171 407 OFFCURVE",
"259 407 CURVE SMOOTH",
"347 407 OFFCURVE",
"405 350 OFFCURVE",
"405 265 CURVE SMOOTH",
"405 155 LINE SMOOTH",
"405 70 OFFCURVE",
"347 13 OFFCURVE",
"259 13 CURVE SMOOTH"
);
}
);
width = 497;
},
{
layerId = "4E2227F3-52E4-4048-A8EE-327B486EF0A4";
paths = (
{
closed = 1;
nodes = (
"366 -8 OFFCURVE",
"451 58 OFFCURVE",
"451 171 CURVE SMOOTH",
"451 260 LINE SMOOTH",
"451 390 OFFCURVE",
"375 444 OFFCURVE",
"295 444 CURVE SMOOTH",
"181 444 OFFCURVE",
"175 339 OFFCURVE",
"176 327 CURVE",
"215 327 LINE",
"215 511 LINE SMOOTH",
"215 530 OFFCURVE",
"225 543 OFFCURVE",
"239 543 CURVE SMOOTH",
"253 543 OFFCURVE",
"263 530 OFFCURVE",
"263 511 CURVE SMOOTH",
"263 470 LINE",
"451 470 LINE",
"451 524 LINE SMOOTH",
"451 638 OFFCURVE",
"366 708 OFFCURVE",
"239 708 CURVE SMOOTH",
"112 708 OFFCURVE",
"27 638 OFFCURVE",
"27 524 CURVE SMOOTH",
"27 171 LINE SMOOTH",
"27 58 OFFCURVE",
"112 -8 OFFCURVE",
"239 -8 CURVE SMOOTH"
);
},
{
closed = 1;
nodes = (
"225 152 OFFCURVE",
"215 165 OFFCURVE",
"215 184 CURVE SMOOTH",
"215 252 LINE SMOOTH",
"215 271 OFFCURVE",
"225 284 OFFCURVE",
"239 284 CURVE SMOOTH",
"253 284 OFFCURVE",
"263 271 OFFCURVE",
"263 252 CURVE SMOOTH",
"263 184 LINE SMOOTH",
"263 165 OFFCURVE",
"253 152 OFFCURVE",
"239 152 CURVE SMOOTH"
);
}
);
width = 472;
},
{
layerId = "0BD25E4B-8A11-4E34-A837-2DA28743BADD";
paths = (
{
closed = 1;
nodes = (
"365 -8 OFFCURVE",
"440 58 OFFCURVE",
"440 164 CURVE SMOOTH",
"440 261 LINE SMOOTH",
"440 375 OFFCURVE",
"370 435 OFFCURVE",
"278 435 CURVE SMOOTH",
"187 435 OFFCURVE",
"156 369 OFFCURVE",
"142 334 CURVE",
"162 334 LINE",
"162 529 LINE SMOOTH",
"162 583 OFFCURVE",
"198 620 OFFCURVE",
"252 620 CURVE SMOOTH",
"305 620 OFFCURVE",
"341 583 OFFCURVE",
"341 529 CURVE SMOOTH",
"341 486 LINE",
"440 486 LINE",
"440 534 LINE SMOOTH",
"440 640 OFFCURVE",
"365 708 OFFCURVE",
"252 708 CURVE SMOOTH",
"138 708 OFFCURVE",
"63 640 OFFCURVE",
"63 534 CURVE SMOOTH",
"63 164 LINE SMOOTH",
"63 58 OFFCURVE",
"138 -8 OFFCURVE",
"252 -8 CURVE SMOOTH"
);
},
{
closed = 1;
nodes = (
"198 78 OFFCURVE",
"162 114 OFFCURVE",
"162 169 CURVE SMOOTH",
"162 259 LINE SMOOTH",
"162 313 OFFCURVE",
"198 350 OFFCURVE",
"252 350 CURVE SMOOTH",
"305 350 OFFCURVE",
"341 313 OFFCURVE",
"341 259 CURVE SMOOTH",
"341 169 LINE SMOOTH",
"341 114 OFFCURVE",
"305 78 OFFCURVE",
"252 78 CURVE SMOOTH"
);
}
);
width = 489;
}
);
unicode = 0036;
},
{
glyphname = seven;
lastChange = "2016-12-20 00:27:52 +0000";
layers = (
{
layerId = "262880E7-CFE1-4BDA-902E-E24798F3240A";
paths = (
{
closed = 1;
nodes = (
"143 0 LINE",
"371 679 LINE",
"371 700 LINE",
"30 700 LINE",
"30 679 LINE",
"347 679 LINE",
"118 0 LINE"
);
}
);
width = 401;
},
{
layerId = "4E2227F3-52E4-4048-A8EE-327B486EF0A4";
paths = (
{
closed = 1;
nodes = (
"235 0 LINE",
"402 530 LINE",
"402 700 LINE",
"9 700 LINE",
"9 530 LINE",
"204 530 LINE",
"39 0 LINE"
);
}
);
width = 411;
},
{
layerId = "0BD25E4B-8A11-4E34-A837-2DA28743BADD";
paths = (
{
closed = 1;
nodes = (
"187 0 LINE",
"386 609 LINE",
"386 700 LINE",
"21 700 LINE",
"21 609 LINE",
"281 609 LINE",
"82 0 LINE"
);
}
);
width = 407;
}
);
unicode = 0037;
},
{
glyphname = eight;
lastChange = "2016-12-20 00:29:37 +0000";
layers = (
{
layerId = "262880E7-CFE1-4BDA-902E-E24798F3240A";
paths = (
{
closed = 1;
nodes = (
"353 -18 OFFCURVE",
"420 54 OFFCURVE",
"420 161 CURVE SMOOTH",
"420 215 LINE SMOOTH",
"420 322 OFFCURVE",
"353 394 OFFCURVE",
"251 394 CURVE SMOOTH",
"149 394 OFFCURVE",
"80 322 OFFCURVE",
"80 215 CURVE SMOOTH",
"80 161 LINE SMOOTH",
"80 54 OFFCURVE",
"149 -18 OFFCURVE",
"251 -18 CURVE SMOOTH"
);
},
{
closed = 1;
nodes = (
"162 2 OFFCURVE",
"102 66 OFFCURVE",
"102 161 CURVE SMOOTH",
"102 215 LINE SMOOTH",
"102 311 OFFCURVE",
"162 375 OFFCURVE",
"251 375 CURVE SMOOTH",
"340 375 OFFCURVE",
"398 311 OFFCURVE",
"398 215 CURVE SMOOTH",
"398 161 LINE SMOOTH",
"398 66 OFFCURVE",
"340 2 OFFCURVE",
"251 2 CURVE SMOOTH"
);
},
{
closed = 1;
nodes = (
"353 375 OFFCURVE",
"418 439 OFFCURVE",
"418 534 CURVE SMOOTH",
"418 549 LINE SMOOTH",
"418 644 OFFCURVE",
"353 708 OFFCURVE",
"251 708 CURVE SMOOTH",
"149 708 OFFCURVE",
"82 644 OFFCURVE",
"82 549 CURVE SMOOTH",
"82 534 LINE SMOOTH",
"82 439 OFFCURVE",
"149 375 OFFCURVE",
"251 375 CURVE SMOOTH"
);
},
{
closed = 1;
nodes = (
"162 395 OFFCURVE",
"104 451 OFFCURVE",
"104 534 CURVE SMOOTH",
"104 549 LINE SMOOTH",
"104 633 OFFCURVE",
"162 689 OFFCURVE",
"251 689 CURVE SMOOTH",
"340 689 OFFCURVE",
"396 633 OFFCURVE",
"396 549 CURVE SMOOTH",
"396 534 LINE SMOOTH",
"396 451 OFFCURVE",
"340 395 OFFCURVE",
"251 395 CURVE SMOOTH"
);
}
);
width = 500;
},
{
layerId = "4E2227F3-52E4-4048-A8EE-327B486EF0A4";
paths = (
{
closed = 1;
nodes = (
"391 -8 OFFCURVE",
"477 69 OFFCURVE",
"477 194 CURVE SMOOTH",
"477 241 LINE SMOOTH",
"477 427 OFFCURVE",
"286 403 OFFCURVE",
"251 403 CURVE SMOOTH",
"216 403 OFFCURVE",
"25 427 OFFCURVE",
"25 241 CURVE SMOOTH",
"25 195 LINE SMOOTH",
"25 69 OFFCURVE",
"111 -8 OFFCURVE",
"251 -8 CURVE SMOOTH"
);
},
{
closed = 1;
nodes = (
"227 152 OFFCURVE",
"213 171 OFFCURVE",
"213 203 CURVE SMOOTH",
"213 237 LINE SMOOTH",
"213 269 OFFCURVE",
"227 288 OFFCURVE",
"251 288 CURVE",
"275 288 OFFCURVE",
"289 269 OFFCURVE",
"289 237 CURVE SMOOTH",
"289 203 LINE SMOOTH",
"289 171 OFFCURVE",
"275 152 OFFCURVE",
"251 152 CURVE SMOOTH"
);
},
{
closed = 1;
nodes = (
"351 294 OFFCURVE",
"478 339 OFFCURVE",
"478 486 CURVE SMOOTH",
"478 525 LINE SMOOTH",
"478 650 OFFCURVE",
"392 708 OFFCURVE",
"251 708 CURVE SMOOTH",
"111 708 OFFCURVE",
"24 651 OFFCURVE",
"24 525 CURVE SMOOTH",
"24 487 LINE SMOOTH",
"24 339 OFFCURVE",
"141 294 OFFCURVE",
"251 294 CURVE SMOOTH"
);
},
{
closed = 1;
nodes = (
"227 422 OFFCURVE",
"212 441 OFFCURVE",
"212 473 CURVE SMOOTH",
"212 497 LINE SMOOTH",
"212 529 OFFCURVE",
"227 548 OFFCURVE",
"251 548 CURVE SMOOTH",
"275 548 OFFCURVE",
"290 529 OFFCURVE",
"290 497 CURVE SMOOTH",
"290 473 LINE SMOOTH",
"290 441 OFFCURVE",
"275 422 OFFCURVE",
"251 422 CURVE SMOOTH"
);
}
);
width = 502;
},
{
layerId = "0BD25E4B-8A11-4E34-A837-2DA28743BADD";
paths = (
{
closed = 1;
nodes = (
"377 -14 OFFCURVE",
"455 61 OFFCURVE",
"455 176 CURVE SMOOTH",
"455 227 LINE SMOOTH",
"455 371 OFFCURVE",
"328 398 OFFCURVE",
"256 398 CURVE SMOOTH",
"183 398 OFFCURVE",
"56 371 OFFCURVE",
"56 227 CURVE SMOOTH",
"56 177 LINE SMOOTH",
"56 61 OFFCURVE",
"134 -14 OFFCURVE",
"256 -14 CURVE SMOOTH"
);
},
{
closed = 1;
nodes = (
"195 80 OFFCURVE",
"155 124 OFFCURVE",
"155 189 CURVE SMOOTH",
"155 226 LINE SMOOTH",
"155 292 OFFCURVE",
"195 334 OFFCURVE",
"256 334 CURVE",
"316 334 OFFCURVE",
"355 292 OFFCURVE",
"355 226 CURVE SMOOTH",
"355 189 LINE SMOOTH",
"355 124 OFFCURVE",
"316 80 OFFCURVE",
"256 80 CURVE SMOOTH"
);
},
{
closed = 1;
nodes = (
"359 338 OFFCURVE",
"444 392 OFFCURVE",
"444 512 CURVE SMOOTH",
"444 538 LINE SMOOTH",
"444 647 OFFCURVE",
"378 708 OFFCURVE",
"256 708 CURVE SMOOTH",
"134 708 OFFCURVE",
"66 647 OFFCURVE",
"66 538 CURVE SMOOTH",
"66 512 LINE SMOOTH",
"66 392 OFFCURVE",
"148 338 OFFCURVE",
"256 338 CURVE SMOOTH"
);
},
{
closed = 1;
nodes = (
"195 413 OFFCURVE",
"166 451 OFFCURVE",
"166 510 CURVE SMOOTH",
"166 516 LINE SMOOTH",
"166 576 OFFCURVE",
"195 614 OFFCURVE",
"256 614 CURVE SMOOTH",
"316 614 OFFCURVE",
"344 576 OFFCURVE",
"344 516 CURVE SMOOTH",
"344 510 LINE SMOOTH",
"344 451 OFFCURVE",
"316 413 OFFCURVE",
"256 413 CURVE SMOOTH"
);
}
);
width = 511;
}
);
unicode = 0038;
},
{
glyphname = colon;
lastChange = "2016-12-20 00:23:58 +0000";
layers = (
{
layerId = "262880E7-CFE1-4BDA-902E-E24798F3240A";
paths = (
{
closed = 1;
nodes = (
"177 350 OFFCURVE",
"196 368 OFFCURVE",
"196 391 CURVE SMOOTH",
"196 413 OFFCURVE",
"177 431 OFFCURVE",
"155 431 CURVE SMOOTH",
"134 431 OFFCURVE",
"115 413 OFFCURVE",
"115 391 CURVE SMOOTH",
"115 368 OFFCURVE",
"133 350 OFFCURVE",
"155 350 CURVE SMOOTH"
);
},
{
closed = 1;
nodes = (
"177 7 OFFCURVE",
"196 25 OFFCURVE",
"196 48 CURVE SMOOTH",
"196 70 OFFCURVE",
"177 88 OFFCURVE",
"155 88 CURVE SMOOTH",
"134 88 OFFCURVE",
"115 70 OFFCURVE",
"115 48 CURVE SMOOTH",
"115 25 OFFCURVE",
"133 7 OFFCURVE",
"155 7 CURVE SMOOTH"
);
}
);
width = 311;
},
{
layerId = "4E2227F3-52E4-4048-A8EE-327B486EF0A4";
paths = (
{
closed = 1;
nodes = (
"223 321 OFFCURVE",
"266 368 OFFCURVE",
"266 426 CURVE SMOOTH",
"266 484 OFFCURVE",
"214 530 OFFCURVE",
"161 530 CURVE SMOOTH",
"108 530 OFFCURVE",
"56 484 OFFCURVE",
"56 426 CURVE SMOOTH",
"56 368 OFFCURVE",
"99 321 OFFCURVE",
"161 321 CURVE SMOOTH"
);
},
{
closed = 1;
nodes = (
"223 0 OFFCURVE",
"266 47 OFFCURVE",
"266 105 CURVE SMOOTH",
"266 163 OFFCURVE",
"214 209 OFFCURVE",
"161 209 CURVE SMOOTH",
"108 209 OFFCURVE",
"56 163 OFFCURVE",
"56 105 CURVE SMOOTH",
"56 47 OFFCURVE",
"99 0 OFFCURVE",
"161 0 CURVE SMOOTH"
);
}
);
width = 318;
},
{
layerId = "0BD25E4B-8A11-4E34-A837-2DA28743BADD";
paths = (
{
closed = 1;
nodes = (
"198 336 OFFCURVE",
"229 368 OFFCURVE",
"229 407 CURVE SMOOTH",
"229 446 OFFCURVE",
"194 477 OFFCURVE",
"158 477 CURVE SMOOTH",
"122 477 OFFCURVE",
"87 446 OFFCURVE",
"87 407 CURVE SMOOTH",
"87 368 OFFCURVE",
"117 336 OFFCURVE",
"158 336 CURVE SMOOTH"
);
},
{
closed = 1;
nodes = (
"198 4 OFFCURVE",
"229 35 OFFCURVE",
"229 75 CURVE SMOOTH",
"229 113 OFFCURVE",
"194 144 OFFCURVE",
"158 144 CURVE SMOOTH",
"122 144 OFFCURVE",
"87 113 OFFCURVE",
"87 75 CURVE SMOOTH",
"87 35 OFFCURVE",
"117 4 OFFCURVE",
"158 4 CURVE SMOOTH"
);
}
);
width = 314;
}
);
leftKerningGroup = colon;
unicode = 003A;
},
{
glyphname = comma;
lastChange = "2016-12-20 00:23:58 +0000";
layers = (
{
layerId = "262880E7-CFE1-4BDA-902E-E24798F3240A";
paths = (
{
closed = 1;
nodes = (
"102 -66 LINE",
"156 153 LINE",
"134 153 LINE",
"80 -66 LINE"
);
}
);
width = 256;
},
{
layerId = "4E2227F3-52E4-4048-A8EE-327B486EF0A4";
paths = (
{
closed = 1;
nodes = (
"146 -111 LINE",
"209 160 LINE",
"41 160 LINE",
"24 -111 LINE"
);
}
);
width = 233;
},
{
layerId = "0BD25E4B-8A11-4E34-A837-2DA28743BADD";
paths = (
{
closed = 1;
nodes = (
"123 -87 LINE",
"181 156 LINE",
"91 156 LINE",
"54 -87 LINE"
);
}
);
width = 245;
}
);
leftKerningGroup = comma;
rightKerningGroup = comma;
unicode = 002C;
},
{
glyphname = exclam;
lastChange = "2016-12-20 00:23:58 +0000";
layers = (
{
layerId = "262880E7-CFE1-4BDA-902E-E24798F3240A";
paths = (
{
closed = 1;
nodes = (
"160 220 LINE",
"160 700 LINE",
"138 700 LINE",
"138 220 LINE"
);
},
{
closed = 1;
nodes = (
"168 5 OFFCURVE",
"187 23 OFFCURVE",
"187 46 CURVE SMOOTH",
"187 68 OFFCURVE",
"168 86 OFFCURVE",
"146 86 CURVE SMOOTH",
"125 86 OFFCURVE",
"106 68 OFFCURVE",
"106 46 CURVE SMOOTH",
"106 23 OFFCURVE",
"124 5 OFFCURVE",
"146 5 CURVE SMOOTH"
);
}
);
width = 297;
},
{
layerId = "4E2227F3-52E4-4048-A8EE-327B486EF0A4";
paths = (
{
closed = 1;
nodes = (
"225 248 LINE",
"245 700 LINE",
"57 700 LINE",
"77 248 LINE"
);
},
{
closed = 1;
nodes = (
"212 0 OFFCURVE",
"255 47 OFFCURVE",
"255 105 CURVE SMOOTH",
"255 163 OFFCURVE",
"203 209 OFFCURVE",
"150 209 CURVE SMOOTH",
"97 209 OFFCURVE",
"45 163 OFFCURVE",
"45 105 CURVE SMOOTH",
"45 47 OFFCURVE",
"88 0 OFFCURVE",
"150 0 CURVE SMOOTH"
);
}
);
width = 302;
},
{
layerId = "0BD25E4B-8A11-4E34-A837-2DA28743BADD";
paths = (
{
closed = 1;
nodes = (
"190 233 LINE",
"200 700 LINE",
"100 700 LINE",
"110 233 LINE"
);
},
{
closed = 1;
nodes = (
"189 3 OFFCURVE",
"219 34 OFFCURVE",
"219 74 CURVE SMOOTH",
"219 112 OFFCURVE",
"184 143 OFFCURVE",
"148 143 CURVE SMOOTH",
"112 143 OFFCURVE",
"78 112 OFFCURVE",
"78 74 CURVE SMOOTH",
"78 34 OFFCURVE",
"107 3 OFFCURVE",
"148 3 CURVE SMOOTH"
);
}
);
width = 299;
}
);
unicode = 0021;
},
{
glyphname = period;
lastChange = "2016-12-20 00:23:58 +0000";
layers = (
{
layerId = "262880E7-CFE1-4BDA-902E-E24798F3240A";
paths = (
{
closed = 1;
nodes = (
"177 7 OFFCURVE",
"196 25 OFFCURVE",
"196 48 CURVE SMOOTH",
"196 70 OFFCURVE",
"177 88 OFFCURVE",
"155 88 CURVE SMOOTH",
"134 88 OFFCURVE",
"115 70 OFFCURVE",
"115 48 CURVE SMOOTH",
"115 25 OFFCURVE",
"133 7 OFFCURVE",
"155 7 CURVE SMOOTH"
);
}
);
width = 313;
},
{
layerId = "4E2227F3-52E4-4048-A8EE-327B486EF0A4";
paths = (
{
closed = 1;
nodes = (
"211 -8 OFFCURVE",
"254 39 OFFCURVE",
"254 97 CURVE SMOOTH",
"254 155 OFFCURVE",
"202 201 OFFCURVE",
"149 201 CURVE SMOOTH",
"96 201 OFFCURVE",
"44 155 OFFCURVE",
"44 97 CURVE SMOOTH",
"44 39 OFFCURVE",
"87 -8 OFFCURVE",
"149 -8 CURVE SMOOTH"
);
}
);
width = 308;
},
{
layerId = "0BD25E4B-8A11-4E34-A837-2DA28743BADD";
paths = (
{
closed = 1;
nodes = (
"193 0 OFFCURVE",
"223 32 OFFCURVE",
"223 71 CURVE SMOOTH",
"223 110 OFFCURVE",
"189 141 OFFCURVE",
"152 141 CURVE SMOOTH",
"116 141 OFFCURVE",
"82 110 OFFCURVE",
"82 71 CURVE SMOOTH",
"82 32 OFFCURVE",
"112 0 OFFCURVE",
"152 0 CURVE SMOOTH"
);
}
);
width = 311;
}
);
leftKerningGroup = comma;
rightKerningGroup = comma;
unicode = 002E;
},
{
glyphname = question;
lastChange = "2016-12-20 00:23:58 +0000";
layers = (
{
layerId = "262880E7-CFE1-4BDA-902E-E24798F3240A";
paths = (
{
closed = 1;
nodes = (
"197 185 LINE",
"197 271 LINE",
"197 372 OFFCURVE",
"356 378 OFFCURVE",
"356 546 CURVE SMOOTH",
"356 645 OFFCURVE",
"294 709 OFFCURVE",
"202 709 CURVE SMOOTH",
"109 709 OFFCURVE",
"46 645 OFFCURVE",
"46 550 CURVE SMOOTH",
"46 500 LINE",
"68 500 LINE",
"68 550 LINE SMOOTH",
"68 633 OFFCURVE",
"122 688 OFFCURVE",
"202 688 CURVE SMOOTH",
"281 688 OFFCURVE",
"334 633 OFFCURVE",
"334 549 CURVE SMOOTH",
"334 395 OFFCURVE",
"173 394 OFFCURVE",
"173 271 CURVE",
"173 185 LINE"
);
},
{
closed = 1;
nodes = (
"209 5 OFFCURVE",
"228 23 OFFCURVE",
"228 46 CURVE SMOOTH",
"228 68 OFFCURVE",
"209 86 OFFCURVE",
"187 86 CURVE SMOOTH",
"166 86 OFFCURVE",
"147 68 OFFCURVE",
"147 46 CURVE SMOOTH",
"147 23 OFFCURVE",
"165 5 OFFCURVE",
"187 5 CURVE SMOOTH"
);
}
);
width = 405;
},
{
layerId = "4E2227F3-52E4-4048-A8EE-327B486EF0A4";
paths = (
{
closed = 1;
nodes = (
"321 236 LINE",
"321 252 LINE",
"321 339 OFFCURVE",
"473 338 OFFCURVE",
"473 503 CURVE SMOOTH",
"473 627 OFFCURVE",
"386 710 OFFCURVE",
"249 710 CURVE SMOOTH",
"107 710 OFFCURVE",
"10 620 OFFCURVE",
"10 488 CURVE SMOOTH",
"10 478 LINE",
"198 469 LINE",
"198 488 LINE SMOOTH",
"198 517 OFFCURVE",
"214 539 OFFCURVE",
"244 539 CURVE SMOOTH",
"268 539 OFFCURVE",
"283 522 OFFCURVE",
"283 494 CURVE SMOOTH",
"283 418 OFFCURVE",
"135 410 OFFCURVE",
"135 264 CURVE",
"135 236 LINE"
);
},
{
closed = 1;
nodes = (
"288 -5 OFFCURVE",
"332 38 OFFCURVE",
"332 91 CURVE SMOOTH",
"332 144 OFFCURVE",
"287 187 OFFCURVE",
"236 187 CURVE SMOOTH",
"184 187 OFFCURVE",
"140 144 OFFCURVE",
"140 90 CURVE SMOOTH",
"140 38 OFFCURVE",
"182 -5 OFFCURVE",
"235 -5 CURVE SMOOTH"
);
}
);
width = 483;
},
{
layerId = "0BD25E4B-8A11-4E34-A837-2DA28743BADD";
paths = (
{
closed = 1;
nodes = (
"255 209 LINE",
"255 262 LINE",
"255 357 OFFCURVE",
"411 359 OFFCURVE",
"411 526 CURVE SMOOTH",
"411 637 OFFCURVE",
"337 709 OFFCURVE",
"224 709 CURVE SMOOTH",
"108 709 OFFCURVE",
"29 633 OFFCURVE",
"29 521 CURVE SMOOTH",
"29 490 LINE",
"129 486 LINE",
"129 521 LINE SMOOTH",
"129 579 OFFCURVE",
"165 618 OFFCURVE",
"222 618 CURVE SMOOTH",
"275 618 OFFCURVE",
"310 581 OFFCURVE",
"310 523 CURVE SMOOTH",
"310 406 OFFCURVE",
"155 401 OFFCURVE",
"155 268 CURVE",
"155 209 LINE"
);
},
{
closed = 1;
nodes = (
"246 0 OFFCURVE",
"277 30 OFFCURVE",
"277 67 CURVE SMOOTH",
"277 103 OFFCURVE",
"245 133 OFFCURVE",
"210 133 CURVE SMOOTH",
"174 133 OFFCURVE",
"144 103 OFFCURVE",
"144 67 CURVE SMOOTH",
"144 30 OFFCURVE",
"173 0 OFFCURVE",
"209 0 CURVE SMOOTH"
);
}
);
width = 441;
}
);
unicode = 003F;
},
{
glyphname = quotedbl;
lastChange = "2016-12-20 00:29:42 +0000";
layers = (
{
layerId = "262880E7-CFE1-4BDA-902E-E24798F3240A";
paths = (
{
closed = 1;
nodes = (
"171 500 LINE",
"174 692 LINE",
"148 692 LINE",
"151 500 LINE"
);
},
{
closed = 1;
nodes = (
"83 500 LINE",
"86 692 LINE",
"60 692 LINE",
"63 500 LINE"
);
}
);
width = 234;
},
{
layerId = "4E2227F3-52E4-4048-A8EE-327B486EF0A4";
paths = (
{
closed = 1;
nodes = (
"388 460 LINE",
"408 700 LINE",
"230 700 LINE",
"250 460 LINE"
);
},
{
closed = 1;
nodes = (
"162 460 LINE",
"182 700 LINE",
"4 700 LINE",
"24 460 LINE"
);
}
);
width = 412;
},
{
layerId = "0BD25E4B-8A11-4E34-A837-2DA28743BADD";
paths = (
{
closed = 1;
nodes = (
"274 481 LINE",
"285 696 LINE",
"188 696 LINE",
"199 481 LINE"
);
},
{
closed = 1;
nodes = (
"122 481 LINE",
"133 696 LINE",
"36 696 LINE",
"47 481 LINE"
);
}
);
width = 321;
}
);
leftKerningGroup = quotedbl;
leftMetricsKey = "=quotesingle";
rightKerningGroup = quotedbl;
rightMetricsKey = "=quotesingle";
unicode = 0022;
},
{
glyphname = quotesingle;
lastChange = "2016-12-20 00:29:42 +0000";
layers = (
{
layerId = "262880E7-CFE1-4BDA-902E-E24798F3240A";
paths = (
{
closed = 1;
nodes = (
"83 507 LINE",
"86 697 LINE",
"60 697 LINE",
"63 507 LINE"
);
}
);
width = 146;
},
{
layerId = "4E2227F3-52E4-4048-A8EE-327B486EF0A4";
paths = (
{
closed = 1;
nodes = (
"172 460 LINE",
"192 700 LINE",
"4 700 LINE",
"24 460 LINE"
);
}
);
width = 196;
},
{
layerId = "0BD25E4B-8A11-4E34-A837-2DA28743BADD";
paths = (
{
closed = 1;
nodes = (
"127 485 LINE",
"137 698 LINE",
"36 698 LINE",
"47 485 LINE"
);
}
);
width = 173;
}
);
leftKerningGroup = quotedbl;
leftMetricsKey = "=n-20";
rightKerningGroup = quotedbl;
rightMetricsKey = "=|n-20";
unicode = 0027;
},
{
glyphname = semicolon;
lastChange = "2016-12-20 00:23:58 +0000";
layers = (
{
layerId = "262880E7-CFE1-4BDA-902E-E24798F3240A";
paths = (
{
closed = 1;
nodes = (
"133 -60 LINE",
"168 147 LINE",
"144 147 LINE",
"112 -60 LINE"
);
},
{
closed = 1;
nodes = (
"174 370 OFFCURVE",
"193 388 OFFCURVE",
"193 411 CURVE",
"193 433 OFFCURVE",
"174 451 OFFCURVE",
"152 451 CURVE SMOOTH",
"131 451 OFFCURVE",
"112 433 OFFCURVE",
"112 411 CURVE SMOOTH",
"112 388 OFFCURVE",
"130 370 OFFCURVE",
"152 370 CURVE SMOOTH"
);
}
);
width = 298;
},
{
layerId = "4E2227F3-52E4-4048-A8EE-327B486EF0A4";
paths = (
{
closed = 1;
nodes = (
"154 -111 LINE",
"217 160 LINE",
"49 160 LINE",
"32 -111 LINE"
);
},
{
closed = 1;
nodes = (
"191 291 OFFCURVE",
"234 338 OFFCURVE",
"234 396 CURVE SMOOTH",
"234 454 OFFCURVE",
"182 500 OFFCURVE",
"129 500 CURVE SMOOTH",
"76 500 OFFCURVE",
"24 454 OFFCURVE",
"24 396 CURVE SMOOTH",
"24 338 OFFCURVE",
"67 291 OFFCURVE",
"129 291 CURVE SMOOTH"
);
}
);
width = 258;
},
{
layerId = "0BD25E4B-8A11-4E34-A837-2DA28743BADD";
paths = (
{
closed = 1;
nodes = (
"143 -84 LINE",
"191 153 LINE",
"100 153 LINE",
"75 -84 LINE"
);
},
{
closed = 1;
nodes = (
"182 333 OFFCURVE",
"212 365 OFFCURVE",
"212 404 CURVE",
"212 443 OFFCURVE",
"178 474 OFFCURVE",
"141 474 CURVE SMOOTH",
"105 474 OFFCURVE",
"71 443 OFFCURVE",
"71 404 CURVE SMOOTH",
"71 365 OFFCURVE",
"101 333 OFFCURVE",
"141 333 CURVE SMOOTH"
);
}
);
width = 279;
}
);
leftKerningGroup = colon;
unicode = 003B;
},
{
glyphname = slash;
lastChange = "2016-12-20 00:23:58 +0000";
layers = (
{
layerId = "262880E7-CFE1-4BDA-902E-E24798F3240A";
paths = (
{
closed = 1;
nodes = (
"22 0 LINE",
"218 700 LINE",
"196 700 LINE",
"0 0 LINE"
);
}
);
width = 218;
},
{
layerId = "4E2227F3-52E4-4048-A8EE-327B486EF0A4";
paths = (
{
closed = 1;
nodes = (
"188 0 LINE",
"442 700 LINE",
"254 700 LINE",
"0 0 LINE"
);
}
);
width = 442;
},
{
layerId = "0BD25E4B-8A11-4E34-A837-2DA28743BADD";
paths = (
{
closed = 1;
nodes = (
"99 0 LINE",
"323 700 LINE",
"223 700 LINE",
"0 0 LINE"
);
}
);
width = 323;
}
);
unicode = 002F;
},
{
glyphname = emdash;
lastChange = "2016-12-20 00:23:58 +0000";
layers = (
{
layerId = "262880E7-CFE1-4BDA-902E-E24798F3240A";
paths = (
{
closed = 1;
nodes = (
"423 251 LINE",
"423 272 LINE",
"23 272 LINE",
"23 251 LINE"
);
}
);
width = 446;
},
{
layerId = "4E2227F3-52E4-4048-A8EE-327B486EF0A4";
paths = (
{
closed = 1;
nodes = (
"419 165 LINE",
"419 325 LINE",
"12 325 LINE",
"12 165 LINE"
);
}
);
width = 431;
},
{
layerId = "0BD25E4B-8A11-4E34-A837-2DA28743BADD";
paths = (
{
closed = 1;
nodes = (
"421 211 LINE",
"421 297 LINE",
"18 297 LINE",
"18 211 LINE"
);
}
);
width = 439;
}
);
leftKerningGroup = hyphen;
rightKerningGroup = hyphen;
unicode = 2014;
},
{
glyphname = hyphen;
lastChange = "2016-12-20 00:23:58 +0000";
layers = (
{
layerId = "262880E7-CFE1-4BDA-902E-E24798F3240A";
paths = (
{
closed = 1;
nodes = (
"276 251 LINE",
"276 272 LINE",
"23 272 LINE",
"23 251 LINE"
);
}
);
width = 299;
},
{
layerId = "4E2227F3-52E4-4048-A8EE-327B486EF0A4";
paths = (
{
closed = 1;
nodes = (
"299 165 LINE",
"299 325 LINE",
"12 325 LINE",
"12 165 LINE"
);
}
);
width = 311;
},
{
layerId = "0BD25E4B-8A11-4E34-A837-2DA28743BADD";
paths = (
{
closed = 1;
nodes = (
"287 211 LINE",
"287 297 LINE",
"18 297 LINE",
"18 211 LINE"
);
}
);
width = 305;
}
);
leftKerningGroup = hyphen;
rightKerningGroup = hyphen;
unicode = 002D;
},
{
glyphname = quotedblleft;
lastChange = "2016-12-20 00:23:58 +0000";
layers = (
{
layerId = "262880E7-CFE1-4BDA-902E-E24798F3240A";
paths = (
{
closed = 1;
nodes = (
"94 507 LINE",
"26 697 LINE",
"0 697 LINE",
"74 507 LINE"
);
},
{
closed = 1;
nodes = (
"194 507 LINE",
"126 697 LINE",
"100 697 LINE",
"174 507 LINE"
);
}
);
width = 194;
},
{
layerId = "4E2227F3-52E4-4048-A8EE-327B486EF0A4";
paths = (
{
closed = 1;
nodes = (
"253 460 LINE",
"187 700 LINE",
"0 700 LINE",
"111 460 LINE"
);
},
{
closed = 1;
nodes = (
"423 460 LINE",
"404 700 LINE",
"219 700 LINE",
"293 460 LINE"
);
}
);
width = 423;
},
{
layerId = "0BD25E4B-8A11-4E34-A837-2DA28743BADD";
paths = (
{
closed = 1;
nodes = (
"168 485 LINE",
"101 698 LINE",
"0 698 LINE",
"91 485 LINE"
);
},
{
closed = 1;
nodes = (
"301 485 LINE",
"256 698 LINE",
"156 698 LINE",
"230 485 LINE"
);
}
);
width = 301;
}
);
leftMetricsKey = "=quoteleft";
rightMetricsKey = "=quoteleft";
unicode = 201C;
},
{
glyphname = quoteleft;
lastChange = "2016-12-20 00:23:58 +0000";
layers = (
{
layerId = "262880E7-CFE1-4BDA-902E-E24798F3240A";
paths = (
{
closed = 1;
nodes = (
"26 697 LINE",
"0 697 LINE",
"74 507 LINE",
"94 507 LINE"
);
}
);
width = 94;
},
{
layerId = "4E2227F3-52E4-4048-A8EE-327B486EF0A4";
paths = (
{
closed = 1;
nodes = (
"187.96 700 LINE",
"-0.04 700 LINE",
"83.402 460 LINE",
"231.402 460 LINE"
);
}
);
width = 231;
},
{
layerId = "0BD25E4B-8A11-4E34-A837-2DA28743BADD";
paths = (
{
closed = 1;
nodes = (
"102 698 LINE",
"0 698 LINE",
"78 485 LINE",
"158 485 LINE"
);
}
);
width = 158;
}
);
unicode = 2018;
},
{
glyphname = dollar;
lastChange = "2016-12-20 00:23:58 +0000";
layers = (
{
layerId = "262880E7-CFE1-4BDA-902E-E24798F3240A";
paths = (
{
closed = 1;
nodes = (
"349 -5 OFFCURVE",
"412 50 OFFCURVE",
"412 149 CURVE SMOOTH",
"412 255 OFFCURVE",
"339 307 OFFCURVE",
"257 361 CURVE SMOOTH",
"176 414 OFFCURVE",
"112 457 OFFCURVE",
"112 550 CURVE SMOOTH",
"112 634 OFFCURVE",
"164 684 OFFCURVE",
"248 684 CURVE SMOOTH",
"332 684 OFFCURVE",
"384 635 OFFCURVE",
"384 548 CURVE SMOOTH",
"384 500 LINE",
"406 500 LINE",
"406 550 LINE SMOOTH",
"406 650 OFFCURVE",
"346 705 OFFCURVE",
"248 705 CURVE SMOOTH",
"150 705 OFFCURVE",
"90 649 OFFCURVE",
"90 553 CURVE SMOOTH",
"90 446 OFFCURVE",
"165 394 OFFCURVE",
"243 342 CURVE SMOOTH",
"320 291 OFFCURVE",
"390 248 OFFCURVE",
"390 152 CURVE SMOOTH",
"390 67 OFFCURVE",
"335 15 OFFCURVE",
"250 15 CURVE SMOOTH",
"165 15 OFFCURVE",
"118 68 OFFCURVE",
"118 154 CURVE SMOOTH",
"118 200 LINE",
"96 200 LINE",
"96 150 LINE SMOOTH",
"96 50 OFFCURVE",
"152 -5 OFFCURVE",
"251 -5 CURVE SMOOTH"
);
},
{
closed = 1;
nodes = (
"265 -88 LINE",
"265 2 LINE",
"243 2 LINE",
"243 -88 LINE"
);
},
{
closed = 1;
nodes = (
"258 702 LINE",
"258 792 LINE",
"236 792 LINE",
"236 702 LINE"
);
}
);
width = 502;
},
{
layerId = "4E2227F3-52E4-4048-A8EE-327B486EF0A4";
paths = (
{
closed = 1;
nodes = (
"350 -8 OFFCURVE",
"436 70 OFFCURVE",
"436 187 CURVE SMOOTH",
"436 288 OFFCURVE",
"373 338 OFFCURVE",
"271 412 CURVE SMOOTH",
"208 458 OFFCURVE",
"192 475 OFFCURVE",
"192 508 CURVE SMOOTH",
"192 534 OFFCURVE",
"202 548 OFFCURVE",
"219 548 CURVE SMOOTH",
"235 548 OFFCURVE",
"246 534 OFFCURVE",
"246 514 CURVE SMOOTH",
"246 490 LINE",
"431 490 LINE",
"431 509 LINE SMOOTH",
"431 628 OFFCURVE",
"347 708 OFFCURVE",
"220 708 CURVE SMOOTH",
"91 708 OFFCURVE",
"7 628 OFFCURVE",
"7 510 CURVE SMOOTH",
"7 387 OFFCURVE",
"99 322 OFFCURVE",
"169 272 CURVE SMOOTH",
"235 225 OFFCURVE",
"251 211 OFFCURVE",
"251 186 CURVE SMOOTH",
"251 164 OFFCURVE",
"240 152 OFFCURVE",
"224 152 CURVE SMOOTH",
"208 152 OFFCURVE",
"197 166 OFFCURVE",
"197 188 CURVE SMOOTH",
"197 211 LINE",
"12 211 LINE",
"12 180 LINE SMOOTH",
"12 70 OFFCURVE",
"94 -8 OFFCURVE",
"222 -8 CURVE SMOOTH"
);
},
{
closed = 1;
nodes = (
"279 -68 LINE",
"276 53 LINE",
"163 53 LINE",
"160 -68 LINE"
);
},
{
closed = 1;
nodes = (
"276 657 LINE",
"279 778 LINE",
"162 778 LINE",
"165 657 LINE"
);
}
);
width = 443;
},
{
layerId = "0BD25E4B-8A11-4E34-A837-2DA28743BADD";
paths = (
{
closed = 1;
nodes = (
"349 -6 OFFCURVE",
"423 59 OFFCURVE",
"423 167 CURVE SMOOTH",
"423 270 OFFCURVE",
"355 321 OFFCURVE",
"264 385 CURVE SMOOTH",
"191 435 OFFCURVE",
"149 465 OFFCURVE",
"149 530 CURVE SMOOTH",
"149 587 OFFCURVE",
"182 621 OFFCURVE",
"234 621 CURVE SMOOTH",
"287 621 OFFCURVE",
"320 588 OFFCURVE",
"320 532 CURVE SMOOTH",
"320 495 LINE",
"418 495 LINE",
"418 531 LINE SMOOTH",
"418 640 OFFCURVE",
"346 706 OFFCURVE",
"235 706 CURVE SMOOTH",
"122 706 OFFCURVE",
"51 639 OFFCURVE",
"51 533 CURVE SMOOTH",
"51 418 OFFCURVE",
"134 360 OFFCURVE",
"208 309 CURVE SMOOTH",
"280 260 OFFCURVE",
"325 231 OFFCURVE",
"325 168 CURVE SMOOTH",
"325 112 OFFCURVE",
"291 79 OFFCURVE",
"238 79 CURVE SMOOTH",
"185 79 OFFCURVE",
"155 114 OFFCURVE",
"155 170 CURVE SMOOTH",
"155 205 LINE",
"57 205 LINE",
"57 164 LINE SMOOTH",
"57 59 OFFCURVE",
"125 -6 OFFCURVE",
"237 -6 CURVE SMOOTH"
);
},
{
closed = 1;
nodes = (
"272 -79 LINE",
"270 26 LINE",
"206 26 LINE",
"204 -79 LINE"
);
},
{
closed = 1;
nodes = (
"266 681 LINE",
"268 785 LINE",
"201 785 LINE",
"203 681 LINE"
);
}
);
width = 474;
}
);
unicode = 0024;
},
{
glyphname = at;
lastChange = "2016-12-20 00:23:58 +0000";
layers = (
{
components = (
{
name = a.alt;
transform = "{0.6667, 0, 0, 0.6667, 257, 112}";
}
);
layerId = "262880E7-CFE1-4BDA-902E-E24798F3240A";
paths = (
{
closed = 1;
nodes = (
"640 -71 OFFCURVE",
"802 92 OFFCURVE",
"802 290 CURVE SMOOTH",
"802 488 OFFCURVE",
"640 651 OFFCURVE",
"441 651 CURVE SMOOTH",
"242 651 OFFCURVE",
"80 488 OFFCURVE",
"80 290 CURVE SMOOTH",
"80 92 OFFCURVE",
"242 -71 OFFCURVE",
"441 -71 CURVE SMOOTH"
);
},
{
closed = 1;
nodes = (
"254 -50 OFFCURVE",
"102 102 OFFCURVE",
"102 290 CURVE SMOOTH",
"102 478 OFFCURVE",
"254 630 OFFCURVE",
"441 630 CURVE SMOOTH",
"628 630 OFFCURVE",
"780 478 OFFCURVE",
"780 290 CURVE SMOOTH",
"780 102 OFFCURVE",
"628 -50 OFFCURVE",
"441 -50 CURVE SMOOTH"
);
}
);
width = 882;
},
{
components = (
{
name = a.alt;
transform = "{0.5714, 0, 0, 0.5714, 284, 143}";
}
);
layerId = "4E2227F3-52E4-4048-A8EE-327B486EF0A4";
paths = (
{
closed = 1;
nodes = (
"623 -62 OFFCURVE",
"782 96 OFFCURVE",
"782 292 CURVE SMOOTH",
"782 486 OFFCURVE",
"623 644 OFFCURVE",
"429 644 CURVE SMOOTH",
"235 644 OFFCURVE",
"77 486 OFFCURVE",
"77 292 CURVE SMOOTH",
"77 96 OFFCURVE",
"235 -62 OFFCURVE",
"429 -62 CURVE SMOOTH"
);
},
{
closed = 1;
nodes = (
"279 18 OFFCURVE",
"157 141 OFFCURVE",
"157 292 CURVE SMOOTH",
"157 442 OFFCURVE",
"279 564 OFFCURVE",
"429 564 CURVE SMOOTH",
"579 564 OFFCURVE",
"702 442 OFFCURVE",
"702 292 CURVE SMOOTH",
"702 141 OFFCURVE",
"579 18 OFFCURVE",
"429 18 CURVE SMOOTH"
);
}
);
width = 862;
},
{
components = (
{
name = a.alt;
transform = "{0.6222, 0, 0, 0.6222, 270, 126}";
}
);
layerId = "0BD25E4B-8A11-4E34-A837-2DA28743BADD";
paths = (
{
closed = 1;
nodes = (
"632 -67 OFFCURVE",
"793 94 OFFCURVE",
"793 291 CURVE SMOOTH",
"793 487 OFFCURVE",
"632 648 OFFCURVE",
"435 648 CURVE SMOOTH",
"239 648 OFFCURVE",
"79 487 OFFCURVE",
"79 291 CURVE SMOOTH",
"79 94 OFFCURVE",
"239 -67 OFFCURVE",
"435 -67 CURVE SMOOTH"
);
},
{
closed = 1;
nodes = (
"266 -18 OFFCURVE",
"128 120 OFFCURVE",
"128 291 CURVE SMOOTH",
"128 461 OFFCURVE",
"266 599 OFFCURVE",
"435 599 CURVE SMOOTH",
"605 599 OFFCURVE",
"744 461 OFFCURVE",
"744 291 CURVE SMOOTH",
"744 120 OFFCURVE",
"605 -18 OFFCURVE",
"435 -18 CURVE SMOOTH"
);
}
);
width = 873;
}
);
unicode = 0040;
},
{
glyphname = copyright;
lastChange = "2016-12-20 00:27:53 +0000";
layers = (
{
components = (
{
name = C;
transform = "{0.5, 0, 0, 0.5, 306, 111}";
}
);
layerId = "262880E7-CFE1-4BDA-902E-E24798F3240A";
paths = (
{
closed = 1;
nodes = (
"640 -71 OFFCURVE",
"802 92 OFFCURVE",
"802 290 CURVE SMOOTH",
"802 488 OFFCURVE",
"640 651 OFFCURVE",
"441 651 CURVE SMOOTH",
"242 651 OFFCURVE",
"80 488 OFFCURVE",
"80 290 CURVE SMOOTH",
"80 92 OFFCURVE",
"242 -71 OFFCURVE",
"441 -71 CURVE SMOOTH"
);
},
{
closed = 1;
nodes = (
"254 -50 OFFCURVE",
"102 102 OFFCURVE",
"102 290 CURVE SMOOTH",
"102 478 OFFCURVE",
"254 630 OFFCURVE",
"441 630 CURVE SMOOTH",
"628 630 OFFCURVE",
"780 478 OFFCURVE",
"780 290 CURVE SMOOTH",
"780 102 OFFCURVE",
"628 -50 OFFCURVE",
"441 -50 CURVE SMOOTH"
);
}
);
width = 882;
},
{
components = (
{
name = C;
transform = "{0.5, 0, 0, 0.5, 301, 111}";
}
);
layerId = "4E2227F3-52E4-4048-A8EE-327B486EF0A4";
paths = (
{
closed = 1;
nodes = (
"623 -62 OFFCURVE",
"782 97 OFFCURVE",
"782 292 CURVE SMOOTH",
"782 486 OFFCURVE",
"623 644 OFFCURVE",
"429 644 CURVE SMOOTH",
"235 644 OFFCURVE",
"77 486 OFFCURVE",
"77 292 CURVE SMOOTH",
"77 97 OFFCURVE",
"235 -62 OFFCURVE",
"429 -62 CURVE SMOOTH"
);
},
{
closed = 1;
nodes = (
"279 18 OFFCURVE",
"157 141 OFFCURVE",
"157 292 CURVE SMOOTH",
"157 442 OFFCURVE",
"279 564 OFFCURVE",
"429 564 CURVE SMOOTH",
"579 564 OFFCURVE",
"702 442 OFFCURVE",
"702 292 CURVE SMOOTH",
"702 141 OFFCURVE",
"579 18 OFFCURVE",
"429 18 CURVE SMOOTH"
);
}
);
width = 882;
},
{
components = (
{
name = C;
transform = "{0.5, 0, 0, 0.5, 289, 111}";
}
);
layerId = "0BD25E4B-8A11-4E34-A837-2DA28743BADD";
paths = (
{
closed = 1;
nodes = (
"632 -67 OFFCURVE",
"793 94 OFFCURVE",
"793 291 CURVE SMOOTH",
"793 487 OFFCURVE",
"632 648 OFFCURVE",
"435 648 CURVE SMOOTH",
"239 648 OFFCURVE",
"79 487 OFFCURVE",
"79 291 CURVE SMOOTH",
"79 94 OFFCURVE",
"239 -67 OFFCURVE",
"435 -67 CURVE SMOOTH"
);
},
{
closed = 1;
nodes = (
"266 -18 OFFCURVE",
"128 120 OFFCURVE",
"128 291 CURVE SMOOTH",
"128 461 OFFCURVE",
"266 599 OFFCURVE",
"435 599 CURVE SMOOTH",
"605 599 OFFCURVE",
"744 461 OFFCURVE",
"744 291 CURVE SMOOTH",
"744 120 OFFCURVE",
"605 -18 OFFCURVE",
"435 -18 CURVE SMOOTH"
);
}
);
width = 882;
}
);
unicode = 00A9;
},
